<svg width="25" height="24" viewBox="0 0 25 24" fill="none" xmlns="http://www.w3.org/2000/svg">
<path d="M3.5 1.5H2V21C2 21.3978 2.15804 21.7794 2.43934 22.0607C2.72064 22.342 3.10218 22.5 3.5 22.5H23V21H3.5V1.5Z" fill="white"/>
<path d="M10.7348 12.0423L6.0575 16.7197L5.53015 16.1923L10.7328 10.9825L10.7337 10.9816C10.7686 10.9464 10.8101 10.9185 10.8558 10.8995C10.9015 10.8805 10.9505 10.8707 11 10.8707C11.0495 10.8707 11.0985 10.8805 11.1442 10.8995C11.1899 10.9185 11.2314 10.9464 11.2663 10.9816L11.267 10.9824L14.4845 14.2074L14.7497 14.4731L15.0152 14.2077L20.7077 8.51517L21.3478 7.875H20.4425H18.125V7.125H22.625V11.625H21.875V9.3075V8.4014L21.2347 9.04249L15.0172 15.2675L15.0162 15.2684C14.9814 15.3036 14.9399 15.3315 14.8942 15.3505L15.0384 15.6967L14.8942 15.3505C14.8485 15.3695 14.7995 15.3793 14.75 15.3793C14.7005 15.3793 14.6515 15.3695 14.6058 15.3505L14.4616 15.6967L14.6058 15.3505C14.5601 15.3315 14.5186 15.3036 14.4838 15.2684L14.483 15.2676L11.2655 12.0426L11.0003 11.7769L10.7348 12.0423Z" fill="white" stroke="white" stroke-width="0.75"/>
</svg>
