<svg width="20" height="23" viewBox="0 0 20 23" fill="none" xmlns="http://www.w3.org/2000/svg">
<path fill-rule="evenodd" clip-rule="evenodd" d="M2.86824 8.11078L8.87865 2.10038C11.4357 -0.456626 15.2524 -0.0111717 17.3639 2.10038C19.4755 4.21193 19.9209 8.02863 17.3639 10.5857L11.3535 16.596C9.85717 18.0924 7.63145 17.8237 6.40378 16.5961C5.17611 15.3684 4.90743 13.1427 6.40378 11.6463L10.2929 7.75723C10.6834 7.36671 11.3166 7.36671 11.7071 7.75723C12.0976 8.14775 12.0976 8.78092 11.7071 9.17144L7.81799 13.0605C7.19301 13.6855 7.27789 14.6418 7.81799 15.1819C8.35808 15.7219 9.3143 15.8068 9.93929 15.1818L15.9497 9.17145C17.6353 7.48579 17.3737 4.93857 15.9497 3.51459C14.5257 2.09061 11.9785 1.82895 10.2929 3.51459L4.28245 9.525C1.52164 12.2858 1.81319 16.2481 4.28245 18.7174C6.75172 21.1866 10.714 21.4782 13.4748 18.7174L17.3639 14.8283C17.7545 14.4378 18.3876 14.4378 18.7781 14.8283C19.1687 15.2188 19.1687 15.852 18.7781 16.2425L14.8891 20.1316C11.2859 23.7347 6.05583 23.3192 2.86824 20.1316C-0.319351 16.944 -0.734902 11.7139 2.86824 8.11078Z" fill="#414042"/>
</svg>
