<svg width="15" height="29" viewBox="0 0 15 29" fill="none" xmlns="http://www.w3.org/2000/svg">
<path d="M12.6598 28.9996C12.361 29.0006 12.0658 28.9346 11.7959 28.8066C11.5259 28.6785 11.2881 28.4916 11.0998 28.2596L1.43984 16.2596C1.14568 15.9017 0.984863 15.4528 0.984863 14.9896C0.984863 14.5263 1.14568 14.0774 1.43984 13.7196L11.4398 1.71958C11.7793 1.31114 12.2671 1.05429 12.796 1.00553C13.3248 0.956774 13.8514 1.1201 14.2598 1.45957C14.6683 1.79905 14.9251 2.28687 14.9739 2.81573C15.0226 3.34458 14.8593 3.87114 14.5198 4.27957L5.57984 14.9996L14.2198 25.7196C14.4644 26.0131 14.6198 26.3706 14.6675 26.7497C14.7153 27.1288 14.6534 27.5137 14.4893 27.8587C14.3252 28.2038 14.0657 28.4946 13.7415 28.6968C13.4173 28.899 13.0419 29.004 12.6598 28.9996Z" fill="#7D9E49"/>
</svg>
