<svg width="54" height="36" viewBox="0 0 54 36" fill="none" xmlns="http://www.w3.org/2000/svg">
<g filter="url(#filter0_d_292_46032)">
<rect x="2" width="50" height="32" rx="6" fill="#828282"/>
<path d="M28.516 9.86067C28.8371 9.63882 29.1056 9.34919 29.3025 9.01224C29.4994 8.67528 29.62 8.2992 29.6557 7.91056C29.6913 7.52191 29.6413 7.13017 29.509 6.76299C29.3768 6.39581 29.1655 6.06213 28.8902 5.78552C28.6149 5.50891 28.2822 5.2961 27.9156 5.16212C27.5491 5.02814 27.1575 4.97625 26.7687 5.01012C26.3799 5.04399 26.0033 5.16279 25.6654 5.35814C25.3276 5.55348 25.0367 5.82061 24.8133 6.14067M24.448 8.44267C24.5744 8.85652 24.7994 9.2335 25.1036 9.54122C25.4079 9.84894 25.7823 10.0782 26.1947 10.2093M23 17V15.6667C23 14.9594 23.281 14.2811 23.781 13.781C24.2811 13.281 24.9594 13 25.6667 13H28.3333C28.5923 12.9998 28.8499 13.0373 29.098 13.1113M30.888 14.8987C30.9626 15.1478 31.0003 15.4066 31 15.6667V17M21 5L33 17" stroke="white" stroke-width="1.33333" stroke-linecap="round" stroke-linejoin="round"/>
<path d="M18.324 27C18.996 27 19.344 26.568 19.344 25.92C19.344 25.44 19.056 24.996 18.666 24.936C19.014 24.84 19.278 24.522 19.278 24.018C19.278 23.412 18.918 22.998 18.288 22.998H16.962V27H18.324ZM18.198 24.744H17.442V23.418H18.198C18.606 23.418 18.786 23.712 18.786 24.084C18.786 24.456 18.606 24.744 18.198 24.744ZM18.228 26.574H17.442V25.164H18.228C18.654 25.164 18.852 25.494 18.852 25.872C18.852 26.31 18.642 26.574 18.228 26.574ZM21.9158 27V24.972C21.9158 24.312 21.5318 24.03 20.9558 24.03C20.5898 24.03 20.2478 24.162 19.9718 24.45L20.1638 24.756C20.3858 24.504 20.6198 24.402 20.8898 24.402C21.2678 24.402 21.4838 24.624 21.4838 25.02V25.524C21.3038 25.266 21.0158 25.152 20.7218 25.152C20.2478 25.152 19.8458 25.5 19.8458 26.106C19.8458 26.712 20.2538 27.072 20.7218 27.072C21.0158 27.072 21.2978 26.952 21.4838 26.688V27H21.9158ZM20.8598 26.76C20.4998 26.76 20.2838 26.472 20.2838 26.112C20.2838 25.752 20.4998 25.47 20.8598 25.47C21.1118 25.47 21.3518 25.596 21.4838 25.842V26.394C21.3518 26.634 21.1118 26.76 20.8598 26.76ZM24.6648 27V24.816C24.6648 24.294 24.4248 24.03 23.9328 24.03C23.5848 24.03 23.2608 24.264 23.0928 24.516V24.102H22.6668V27H23.0928V24.876C23.2248 24.636 23.4888 24.414 23.7708 24.414C24.0588 24.414 24.2328 24.552 24.2328 24.936V27H24.6648ZM27.9809 27.072C28.7909 27.072 29.2649 26.586 29.2649 25.704V22.998H28.7909V25.71C28.7909 26.328 28.4969 26.646 27.9809 26.646C27.4709 26.646 27.1769 26.328 27.1769 25.71V22.998H26.6969V25.704C26.6969 26.586 27.1769 27.072 27.9809 27.072ZM30.7969 27.072C31.3909 27.072 31.7629 26.724 31.7629 26.244C31.7629 25.2 30.3169 25.416 30.3169 24.798C30.3169 24.564 30.5149 24.378 30.8329 24.378C31.1149 24.378 31.3609 24.504 31.5049 24.696L31.7089 24.402C31.5049 24.18 31.2109 24.03 30.8269 24.03C30.2509 24.03 29.9029 24.378 29.9029 24.81C29.9029 25.812 31.3489 25.578 31.3489 26.256C31.3489 26.532 31.1269 26.724 30.7909 26.724C30.4789 26.724 30.2029 26.562 30.0349 26.358L29.8189 26.664C30.0589 26.94 30.3889 27.072 30.7969 27.072ZM33.4352 27.072C33.8252 27.072 34.1552 26.898 34.3892 26.61L34.1612 26.358C33.9812 26.586 33.7232 26.712 33.4712 26.712C32.9552 26.712 32.6552 26.274 32.6372 25.692H34.5152V25.56C34.5152 24.714 34.1312 24.03 33.3692 24.03C32.6372 24.03 32.1932 24.708 32.1932 25.548C32.1932 26.436 32.6612 27.072 33.4352 27.072ZM34.0892 25.374H32.6372C32.6492 24.948 32.8532 24.39 33.3632 24.39C33.8912 24.39 34.0832 24.93 34.0892 25.374ZM35.5339 27V24.942C35.6539 24.702 35.9479 24.468 36.2119 24.468C36.2599 24.468 36.3079 24.474 36.3559 24.486V24.042C36.0019 24.042 35.7199 24.258 35.5339 24.564V24.102H35.1079V27H35.5339Z" fill="white"/>
<rect x="2.5" y="0.5" width="49" height="31" rx="5.5" stroke="#DDE2E4"/>
</g>
<defs>
<filter id="filter0_d_292_46032" x="0" y="0" width="54" height="36" filterUnits="userSpaceOnUse" color-interpolation-filters="sRGB">
<feFlood flood-opacity="0" result="BackgroundImageFix"/>
<feColorMatrix in="SourceAlpha" type="matrix" values="0 0 0 0 0 0 0 0 0 0 0 0 0 0 0 0 0 0 127 0" result="hardAlpha"/>
<feOffset dy="2"/>
<feGaussianBlur stdDeviation="1"/>
<feComposite in2="hardAlpha" operator="out"/>
<feColorMatrix type="matrix" values="0 0 0 0 0.509804 0 0 0 0 0.509804 0 0 0 0 0.509804 0 0 0 0.15 0"/>
<feBlend mode="normal" in2="BackgroundImageFix" result="effect1_dropShadow_292_46032"/>
<feBlend mode="normal" in="SourceGraphic" in2="effect1_dropShadow_292_46032" result="shape"/>
</filter>
</defs>
</svg>
