<svg width="54" height="36" viewBox="0 0 54 36" fill="none" xmlns="http://www.w3.org/2000/svg">
<g filter="url(#filter0_d_292_46029)">
<rect x="2" width="50" height="32" rx="6" fill="white"/>
<path d="M31.6667 15.6667H22.3333V6.33333H26.3333V5H22.3333C21.98 5.00106 21.6415 5.14187 21.3917 5.39169C21.1419 5.64151 21.0011 5.98004 21 6.33333V15.6667C21.0011 16.02 21.1419 16.3585 21.3917 16.6083C21.6415 16.8581 21.98 16.9989 22.3333 17H31.6667C32.02 16.9989 32.3585 16.8581 32.6083 16.6083C32.8581 16.3585 32.9989 16.02 33 15.6667V13H31.6667V15.6667Z" fill="#FF355E"/>
<path d="M28.9997 6.33301H32.9997V10.333C32.9997 10.5098 32.9294 10.6794 32.8044 10.8044C32.6794 10.9294 32.5098 10.9997 32.333 10.9997H29.6663C29.4895 10.9997 29.32 10.9294 29.1949 10.8044C29.0699 10.6794 28.9997 10.5098 28.9997 10.333V6.33301ZM33.6663 4.99967H32.333L31.9523 4.33301H30.047L29.6663 4.99967H28.333V5.66634H33.6663V4.99967Z" fill="#FF355E"/>
<path d="M11.4788 27C12.5168 27 13.0868 26.154 13.0868 25.002C13.0868 23.856 12.5168 22.998 11.4788 22.998H10.4108V27H11.4788ZM11.4788 26.574H10.8908V23.418H11.4788C12.2228 23.418 12.5948 24.096 12.5948 25.002C12.5948 25.902 12.2168 26.574 11.4788 26.574ZM14.8356 27.072C15.2256 27.072 15.5556 26.898 15.7896 26.61L15.5616 26.358C15.3816 26.586 15.1236 26.712 14.8716 26.712C14.3556 26.712 14.0556 26.274 14.0376 25.692H15.9156V25.56C15.9156 24.714 15.5316 24.03 14.7696 24.03C14.0376 24.03 13.5936 24.708 13.5936 25.548C13.5936 26.436 14.0616 27.072 14.8356 27.072ZM15.4896 25.374H14.0376C14.0496 24.948 14.2536 24.39 14.7636 24.39C15.2916 24.39 15.4836 24.93 15.4896 25.374ZM16.9342 27V22.998H16.5082V27H16.9342ZM18.7889 27.072C19.1789 27.072 19.5089 26.898 19.7429 26.61L19.5149 26.358C19.3349 26.586 19.0769 26.712 18.8249 26.712C18.3089 26.712 18.0089 26.274 17.9909 25.692H19.8689V25.56C19.8689 24.714 19.4849 24.03 18.7229 24.03C17.9909 24.03 17.5469 24.708 17.5469 25.548C17.5469 26.436 18.0149 27.072 18.7889 27.072ZM19.4429 25.374H17.9909C18.0029 24.948 18.2069 24.39 18.7169 24.39C19.2449 24.39 19.4369 24.93 19.4429 25.374ZM21.1276 27.072C21.3496 27.072 21.4936 27 21.5956 26.898L21.4636 26.574C21.4096 26.64 21.3196 26.688 21.2116 26.688C21.0436 26.688 20.9776 26.562 20.9776 26.34V24.48H21.4696V24.102H20.9776V23.31H20.5456V24.102H20.1616V24.48H20.5456V26.418C20.5456 26.85 20.7316 27.072 21.1276 27.072ZM23.0998 27.072C23.4898 27.072 23.8198 26.898 24.0538 26.61L23.8258 26.358C23.6458 26.586 23.3878 26.712 23.1358 26.712C22.6198 26.712 22.3198 26.274 22.3018 25.692H24.1798V25.56C24.1798 24.714 23.7958 24.03 23.0338 24.03C22.3018 24.03 21.8578 24.708 21.8578 25.548C21.8578 26.436 22.3258 27.072 23.0998 27.072ZM23.7538 25.374H22.3018C22.3138 24.948 22.5178 24.39 23.0278 24.39C23.5558 24.39 23.7478 24.93 23.7538 25.374ZM27.4655 27.072C28.0835 27.072 28.4255 26.682 28.6475 26.238L28.2455 26.052C28.0955 26.394 27.8315 26.646 27.4655 26.646C26.8175 26.646 26.4035 25.95 26.4035 25.002C26.4035 24.054 26.8175 23.358 27.4655 23.358C27.8135 23.358 28.0775 23.574 28.2395 23.898L28.6355 23.712C28.4195 23.298 28.0715 22.932 27.4655 22.932C26.5115 22.932 25.9115 23.802 25.9115 25.002C25.9115 26.196 26.5115 27.072 27.4655 27.072ZM30.2207 27.072C31.0007 27.072 31.4027 26.364 31.4027 25.548C31.4027 24.732 31.0007 24.03 30.2207 24.03C29.4527 24.03 29.0447 24.732 29.0447 25.548C29.0447 26.364 29.4527 27.072 30.2207 27.072ZM30.2207 26.688C29.7227 26.688 29.4947 26.136 29.4947 25.548C29.4947 24.966 29.7227 24.414 30.2207 24.414C30.7307 24.414 30.9527 24.966 30.9527 25.548C30.9527 26.136 30.7307 26.688 30.2207 26.688ZM34.0101 27V24.816C34.0101 24.294 33.7701 24.03 33.2781 24.03C32.9301 24.03 32.6061 24.264 32.4381 24.516V24.102H32.0121V27H32.4381V24.876C32.5701 24.636 32.8341 24.414 33.1161 24.414C33.4041 24.414 33.5781 24.552 33.5781 24.936V27H34.0101ZM35.4311 27.072C35.6531 27.072 35.7971 27 35.8991 26.898L35.7671 26.574C35.7131 26.64 35.6231 26.688 35.5151 26.688C35.3471 26.688 35.2811 26.562 35.2811 26.34V24.48H35.7731V24.102H35.2811V23.31H34.8491V24.102H34.4651V24.48H34.8491V26.418C34.8491 26.85 35.0351 27.072 35.4311 27.072ZM37.4033 27.072C37.7933 27.072 38.1233 26.898 38.3573 26.61L38.1293 26.358C37.9493 26.586 37.6913 26.712 37.4393 26.712C36.9233 26.712 36.6233 26.274 36.6053 25.692H38.4833V25.56C38.4833 24.714 38.0993 24.03 37.3373 24.03C36.6053 24.03 36.1613 24.708 36.1613 25.548C36.1613 26.436 36.6293 27.072 37.4033 27.072ZM38.0573 25.374H36.6053C36.6173 24.948 36.8213 24.39 37.3313 24.39C37.8593 24.39 38.0513 24.93 38.0573 25.374ZM41.0739 27V24.816C41.0739 24.294 40.8339 24.03 40.3419 24.03C39.9939 24.03 39.6699 24.264 39.5019 24.516V24.102H39.0759V27H39.5019V24.876C39.6339 24.636 39.8979 24.414 40.1799 24.414C40.4679 24.414 40.6419 24.552 40.6419 24.936V27H41.0739ZM42.495 27.072C42.717 27.072 42.861 27 42.963 26.898L42.831 26.574C42.777 26.64 42.687 26.688 42.579 26.688C42.411 26.688 42.345 26.562 42.345 26.34V24.48H42.837V24.102H42.345V23.31H41.913V24.102H41.529V24.48H41.913V26.418C41.913 26.85 42.099 27.072 42.495 27.072Z" fill="#FF355E"/>
<rect x="2.5" y="0.5" width="49" height="31" rx="5.5" stroke="#DDE2E4"/>
</g>
<defs>
<filter id="filter0_d_292_46029" x="0" y="0" width="54" height="36" filterUnits="userSpaceOnUse" color-interpolation-filters="sRGB">
<feFlood flood-opacity="0" result="BackgroundImageFix"/>
<feColorMatrix in="SourceAlpha" type="matrix" values="0 0 0 0 0 0 0 0 0 0 0 0 0 0 0 0 0 0 127 0" result="hardAlpha"/>
<feOffset dy="2"/>
<feGaussianBlur stdDeviation="1"/>
<feComposite in2="hardAlpha" operator="out"/>
<feColorMatrix type="matrix" values="0 0 0 0 1 0 0 0 0 0.207843 0 0 0 0 0.368627 0 0 0 0.15 0"/>
<feBlend mode="normal" in2="BackgroundImageFix" result="effect1_dropShadow_292_46029"/>
<feBlend mode="normal" in="SourceGraphic" in2="effect1_dropShadow_292_46029" result="shape"/>
</filter>
</defs>
</svg>
