<svg width="54" height="36" viewBox="0 0 54 36" fill="none" xmlns="http://www.w3.org/2000/svg">
<g filter="url(#filter0_d_359_11326)">
<rect x="2" width="50" height="32" rx="6" fill="#FF355E"/>
<path d="M24.9997 10.3333C26.4724 10.3333 27.6663 9.13943 27.6663 7.66667C27.6663 6.19391 26.4724 5 24.9997 5C23.5269 5 22.333 6.19391 22.333 7.66667C22.333 9.13943 23.5269 10.3333 24.9997 10.3333Z" stroke="white" stroke-width="1.33333" stroke-linecap="round" stroke-linejoin="round"/>
<path d="M21 16.9997V15.6663C21 14.9591 21.281 14.2808 21.781 13.7807C22.2811 13.2806 22.9594 12.9997 23.6667 12.9997H26.3333C27.0406 12.9997 27.7189 13.2806 28.219 13.7807C28.719 14.2808 29 14.9591 29 15.6663V16.9997M29.6667 10.333H33.6667" stroke="white" stroke-width="1.33333" stroke-linecap="round" stroke-linejoin="round"/>
<path d="M15.0782 27C16.1162 27 16.6862 26.154 16.6862 25.002C16.6862 23.856 16.1162 22.998 15.0782 22.998H14.0102V27H15.0782ZM15.0782 26.574H14.4902V23.418H15.0782C15.8222 23.418 16.1942 24.096 16.1942 25.002C16.1942 25.902 15.8162 26.574 15.0782 26.574ZM18.4349 27.072C18.8249 27.072 19.1549 26.898 19.3889 26.61L19.1609 26.358C18.9809 26.586 18.7229 26.712 18.4709 26.712C17.9549 26.712 17.6549 26.274 17.6369 25.692H19.5149V25.56C19.5149 24.714 19.1309 24.03 18.3689 24.03C17.6369 24.03 17.1929 24.708 17.1929 25.548C17.1929 26.436 17.6609 27.072 18.4349 27.072ZM19.0889 25.374H17.6369C17.6489 24.948 17.8529 24.39 18.3629 24.39C18.8909 24.39 19.0829 24.93 19.0889 25.374ZM20.5335 27V22.998H20.1075V27H20.5335ZM22.3883 27.072C22.7783 27.072 23.1083 26.898 23.3423 26.61L23.1143 26.358C22.9343 26.586 22.6763 26.712 22.4243 26.712C21.9083 26.712 21.6083 26.274 21.5903 25.692H23.4683V25.56C23.4683 24.714 23.0843 24.03 22.3223 24.03C21.5903 24.03 21.1463 24.708 21.1463 25.548C21.1463 26.436 21.6143 27.072 22.3883 27.072ZM23.0423 25.374H21.5903C21.6023 24.948 21.8063 24.39 22.3163 24.39C22.8443 24.39 23.0363 24.93 23.0423 25.374ZM24.7269 27.072C24.9489 27.072 25.0929 27 25.1949 26.898L25.0629 26.574C25.0089 26.64 24.9189 26.688 24.8109 26.688C24.6429 26.688 24.5769 26.562 24.5769 26.34V24.48H25.0689V24.102H24.5769V23.31H24.1449V24.102H23.7609V24.48H24.1449V26.418C24.1449 26.85 24.3309 27.072 24.7269 27.072ZM26.6991 27.072C27.0891 27.072 27.4191 26.898 27.6531 26.61L27.4251 26.358C27.2451 26.586 26.9871 26.712 26.7351 26.712C26.2191 26.712 25.9191 26.274 25.9011 25.692H27.7791V25.56C27.7791 24.714 27.3951 24.03 26.6331 24.03C25.9011 24.03 25.4571 24.708 25.4571 25.548C25.4571 26.436 25.9251 27.072 26.6991 27.072ZM27.3531 25.374H25.9011C25.9131 24.948 26.1171 24.39 26.6271 24.39C27.1551 24.39 27.3471 24.93 27.3531 25.374ZM30.9328 27.072C31.7428 27.072 32.2168 26.586 32.2168 25.704V22.998H31.7428V25.71C31.7428 26.328 31.4488 26.646 30.9328 26.646C30.4228 26.646 30.1288 26.328 30.1288 25.71V22.998H29.6488V25.704C29.6488 26.586 30.1288 27.072 30.9328 27.072ZM33.7488 27.072C34.3428 27.072 34.7148 26.724 34.7148 26.244C34.7148 25.2 33.2688 25.416 33.2688 24.798C33.2688 24.564 33.4668 24.378 33.7848 24.378C34.0668 24.378 34.3128 24.504 34.4568 24.696L34.6608 24.402C34.4568 24.18 34.1628 24.03 33.7788 24.03C33.2028 24.03 32.8548 24.378 32.8548 24.81C32.8548 25.812 34.3008 25.578 34.3008 26.256C34.3008 26.532 34.0788 26.724 33.7428 26.724C33.4308 26.724 33.1548 26.562 32.9868 26.358L32.7708 26.664C33.0108 26.94 33.3408 27.072 33.7488 27.072ZM36.3871 27.072C36.7771 27.072 37.1071 26.898 37.3411 26.61L37.1131 26.358C36.9331 26.586 36.6751 26.712 36.4231 26.712C35.9071 26.712 35.6071 26.274 35.5891 25.692H37.4671V25.56C37.4671 24.714 37.0831 24.03 36.3211 24.03C35.5891 24.03 35.1451 24.708 35.1451 25.548C35.1451 26.436 35.6131 27.072 36.3871 27.072ZM37.0411 25.374H35.5891C35.6011 24.948 35.8051 24.39 36.3151 24.39C36.8431 24.39 37.0351 24.93 37.0411 25.374ZM38.4857 27V24.942C38.6057 24.702 38.8997 24.468 39.1637 24.468C39.2117 24.468 39.2597 24.474 39.3077 24.486V24.042C38.9537 24.042 38.6717 24.258 38.4857 24.564V24.102H38.0597V27H38.4857Z" fill="white"/>
<rect x="2.5" y="0.5" width="49" height="31" rx="5.5" stroke="#DDE2E4"/>
</g>
<defs>
<filter id="filter0_d_359_11326" x="0" y="0" width="54" height="36" filterUnits="userSpaceOnUse" color-interpolation-filters="sRGB">
<feFlood flood-opacity="0" result="BackgroundImageFix"/>
<feColorMatrix in="SourceAlpha" type="matrix" values="0 0 0 0 0 0 0 0 0 0 0 0 0 0 0 0 0 0 127 0" result="hardAlpha"/>
<feOffset dy="2"/>
<feGaussianBlur stdDeviation="1"/>
<feComposite in2="hardAlpha" operator="out"/>
<feColorMatrix type="matrix" values="0 0 0 0 1 0 0 0 0 0.207843 0 0 0 0 0.368627 0 0 0 0.15 0"/>
<feBlend mode="normal" in2="BackgroundImageFix" result="effect1_dropShadow_359_11326"/>
<feBlend mode="normal" in="SourceGraphic" in2="effect1_dropShadow_359_11326" result="shape"/>
</filter>
</defs>
</svg>
