<svg width="22" height="22" viewBox="0 0 22 22" fill="none" xmlns="http://www.w3.org/2000/svg">
<path d="M14 9.49951C14.8284 9.49951 15.5 8.82794 15.5 7.99951C15.5 7.17108 14.8284 6.49951 14 6.49951C13.1716 6.49951 12.5 7.17108 12.5 7.99951C12.5 8.82794 13.1716 9.49951 14 9.49951Z" fill="#414042"/>
<path d="M9.5 8C9.5 8.82843 8.82843 9.5 8 9.5C7.17157 9.5 6.5 8.82843 6.5 8C6.5 7.17157 7.17157 6.5 8 6.5C8.82843 6.5 9.5 7.17157 9.5 8Z" fill="#414042"/>
<path fill-rule="evenodd" clip-rule="evenodd" d="M6.5 0.5C3.18628 0.5 0.499986 3.18631 0.5 6.50003L0.500039 15.5C0.500053 18.8137 3.18634 21.5 6.50004 21.5L10.5 21.5005C10.5191 21.5005 10.5382 21.5003 10.5572 21.5H12.2573C13.3182 21.5 14.3356 21.0785 15.0858 20.3283L20.328 15.0858C21.0781 14.3356 21.4995 13.3182 21.4995 12.2574V10.5512C21.4998 10.5343 21.4999 10.5174 21.4999 10.5005L21.4995 6.5C21.4995 3.18629 18.8132 0.5 15.4995 0.5H6.5ZM19.4995 10.5297V6.5C19.4995 4.29086 17.7087 2.5 15.4995 2.5H6.5C4.29085 2.5 2.49999 4.29087 2.5 6.50002L2.50004 15.5C2.50005 17.7091 4.29091 19.5 6.50004 19.5H10.533C11.07 19.4825 11.5 19.0417 11.5 18.5005L11.5 17.4968C11.5003 16.9727 11.5678 16.4643 11.6944 15.9798C11.4804 15.9929 11.2494 16.0001 11.0001 16.0001C9.47453 16.0001 8.27233 15.3891 7.47439 14.8088C7.07349 14.5172 6.76358 14.2258 6.55151 14.0045C6.44506 13.8934 6.36207 13.7987 6.30342 13.7289C6.27407 13.6939 6.25071 13.665 6.23347 13.6432L6.21217 13.616L6.20496 13.6066L6.20222 13.6029L6.20107 13.6014C6.19958 13.5994 6.20006 13.6001 6.20006 13.6001C5.86869 13.1582 5.95823 12.5314 6.40006 12.2001C6.84049 11.8697 7.46474 11.9577 7.79692 12.3959L7.80156 12.4018C7.80751 12.4093 7.81883 12.4234 7.83537 12.4431C7.86852 12.4826 7.92225 12.5442 7.99548 12.6207C8.14278 12.7744 8.36413 12.9829 8.65073 13.1913C9.22779 13.611 10.0256 14.0001 11.0001 14.0001C11.9197 14.0001 12.4337 13.8848 12.6838 13.8014C12.7413 13.7822 12.7846 13.7648 12.8155 13.7511C13.9084 12.3874 15.5844 11.5112 17.4655 11.5006C17.4769 11.5002 17.4884 11.5 17.5 11.5H18.5315C19.0595 11.4836 19.4843 11.058 19.4995 10.5297ZM13.5 19.067C13.5598 19.0196 13.6171 18.9686 13.6715 18.9141L18.9138 13.6716C18.9683 13.6171 19.0193 13.5598 19.0667 13.5H18.5546C18.5364 13.5003 18.5182 13.5005 18.4999 13.5005H17.5C16.1972 13.5005 15.0399 14.1233 14.3096 15.0874C14.3035 15.0958 14.2973 15.104 14.2909 15.1122C13.7941 15.7787 13.5 16.6053 13.5 17.5005V19.067Z" fill="#414042"/>
</svg>
