<svg width="24" height="24" viewBox="0 0 24 24" fill="none" xmlns="http://www.w3.org/2000/svg">
<path d="M3.99967 22.6663C3.82286 22.6663 3.65329 22.5961 3.52827 22.4711C3.40325 22.3461 3.33301 22.1765 3.33301 21.9997V1.99967C3.33301 1.82286 3.40325 1.65329 3.52827 1.52827C3.65329 1.40325 3.82286 1.33301 3.99967 1.33301C4.17649 1.33301 4.34605 1.40325 4.47108 1.52827C4.5961 1.65329 4.66634 1.82286 4.66634 1.99967V21.9997C4.66634 22.1765 4.5961 22.3461 4.47108 22.4711C4.34605 22.5961 4.17649 22.6663 3.99967 22.6663Z" fill="white"/>
<path d="M20.3667 2.5465C20.2653 2.48799 20.1504 2.45719 20.0333 2.45719C19.9163 2.45719 19.8013 2.48799 19.7 2.5465C18.4076 3.08978 17.0149 3.35333 15.6133 3.31984C14.4058 3.23149 13.2299 2.89323 12.16 2.3265C11.127 1.77899 9.99233 1.44994 8.82667 1.35984C7.8578 1.34888 6.8966 1.53251 6 1.89984V3.3865C6.86856 2.91127 7.84326 2.66358 8.83333 2.6665C9.81376 2.76377 10.7653 3.05377 11.6333 3.51984C12.8734 4.16739 14.2368 4.54458 15.6333 4.6265C16.8871 4.63087 18.1344 4.44659 19.3333 4.07984V12.6332C18.1394 13.057 16.8801 13.2668 15.6133 13.2532C14.4058 13.1648 13.2299 12.8266 12.16 12.2598C11.127 11.7123 9.99233 11.3833 8.82667 11.2932C7.85598 11.2907 6.89471 11.4834 6 11.8598V13.3332C6.86856 12.8579 7.84326 12.6102 8.83333 12.6132C9.81376 12.7104 10.7653 13.0004 11.6333 13.4665C12.8734 14.1141 14.2368 14.4912 15.6333 14.5732C17.2364 14.6065 18.8278 14.295 20.3 13.6598C20.4099 13.6044 20.5024 13.5197 20.5671 13.4149C20.6318 13.3102 20.6663 13.1896 20.6667 13.0665V3.11317C20.6683 3.00111 20.6417 2.89045 20.5893 2.7914C20.5368 2.69236 20.4603 2.60813 20.3667 2.5465Z" fill="white"/>
</svg>
