<svg width="24" height="24" viewBox="0 0 24 24" fill="none" xmlns="http://www.w3.org/2000/svg">
<path d="M12.1731 3.75C8.35708 3.75 5.25 6.85708 5.25 10.6731C5.25 13.2235 6.65054 15.4431 8.71154 16.6442V16.9038L8.69008 17.5962H8.71154C8.74408 17.5962 9.39554 17.6148 10.0747 18.0288C10.6749 18.3937 11.3049 19.005 11.4593 20.3654H5.94231V21.75H18.4038V20.3654H12.8868C13.0412 19.005 13.6712 18.3937 14.2715 18.0288C14.9499 17.6148 15.6021 17.5962 15.6346 17.5962H15.6561L15.6346 16.9038V16.6442C17.6956 15.4438 19.0962 13.2235 19.0962 10.6731C19.0962 6.85708 15.9891 3.75 12.1731 3.75ZM12.1731 5.13462C15.24 5.13462 17.7115 7.60615 17.7115 10.6731C17.7115 13.74 15.24 16.2115 12.1731 16.2115C9.10615 16.2115 6.63462 13.74 6.63462 10.6731C6.63462 7.60615 9.10615 5.13462 12.1731 5.13462ZM14.25 9.28846C13.8692 9.28846 13.5577 9.6 13.5577 9.98077C13.5577 10.3615 13.8692 10.6731 14.25 10.6731C14.6308 10.6731 14.9423 10.3615 14.9423 9.98077C14.9423 9.6 14.6308 9.28846 14.25 9.28846ZM12.8654 10.6731C12.4846 10.6731 12.1731 10.9846 12.1731 11.3654C12.1731 11.7462 12.4846 12.0577 12.8654 12.0577C13.2462 12.0577 13.5577 11.7462 13.5577 11.3654C13.5577 10.9846 13.2462 10.6731 12.8654 10.6731ZM14.9423 11.3654C14.5615 11.3654 14.25 11.6769 14.25 12.0577C14.25 12.4385 14.5615 12.75 14.9423 12.75C15.3231 12.75 15.6346 12.4385 15.6346 12.0577C15.6346 11.6769 15.3231 11.3654 14.9423 11.3654ZM11.4808 12.0577C11.1 12.0577 10.7885 12.3692 10.7885 12.75C10.7885 13.1308 11.1 13.4423 11.4808 13.4423C11.8615 13.4423 12.1731 13.1308 12.1731 12.75C12.1731 12.3692 11.8615 12.0577 11.4808 12.0577ZM13.5577 12.75C13.1769 12.75 12.8654 13.0615 12.8654 13.4423C12.8654 13.8231 13.1769 14.1346 13.5577 14.1346C13.9385 14.1346 14.25 13.8231 14.25 13.4423C14.25 13.0615 13.9385 12.75 13.5577 12.75ZM11.6753 17.5962H12.6708C12.4821 17.8096 12.3153 18.0415 12.1731 18.2885C12.0309 18.0415 11.8641 17.8096 11.6753 17.5962Z" fill="white"/>
</svg>
