<svg width="28" height="14" viewBox="0 0 28 14" fill="none" xmlns="http://www.w3.org/2000/svg">
<path d="M3.27995 6.17301C3.65328 4.21301 5.49328 2.86634 7.49328 2.86634H11.3999C12.0933 2.86634 12.6666 2.29301 12.6666 1.59967C12.6666 0.906341 12.0933 0.333008 11.3999 0.333008H7.62661C4.14661 0.333008 1.03995 2.87967 0.706612 6.34634C0.614428 7.27198 0.717173 8.20666 1.00823 9.09017C1.29928 9.97368 1.77219 10.7864 2.39648 11.476C3.02077 12.1656 3.7826 12.7168 4.63289 13.0941C5.48318 13.4713 6.40306 13.6663 7.33328 13.6663H11.3999C12.0933 13.6663 12.6666 13.093 12.6666 12.3997C12.6666 11.7063 12.0933 11.133 11.3999 11.133H7.33328C6.72084 11.1311 6.11643 10.9936 5.56346 10.7303C5.0105 10.467 4.52272 10.0845 4.13518 9.6103C3.74764 9.13608 3.46995 8.58189 3.32208 7.98757C3.17421 7.39325 3.15982 6.77355 3.27995 6.17301ZM9.99995 8.33301H17.9999C18.7333 8.33301 19.3333 7.73301 19.3333 6.99967C19.3333 6.26634 18.7333 5.66634 17.9999 5.66634H9.99995C9.26661 5.66634 8.66661 6.26634 8.66661 6.99967C8.66661 7.73301 9.26661 8.33301 9.99995 8.33301ZM20.3733 0.333008H16.5999C15.9066 0.333008 15.3333 0.906341 15.3333 1.59967C15.3333 2.29301 15.9066 2.86634 16.5999 2.86634H20.5066C22.5066 2.86634 24.3466 4.21301 24.7199 6.17301C24.8401 6.77355 24.8257 7.39325 24.6778 7.98757C24.5299 8.58189 24.2523 9.13608 23.8647 9.6103C23.4772 10.0845 22.9894 10.467 22.4364 10.7303C21.8835 10.9936 21.2791 11.1311 20.6666 11.133H16.5999C15.9066 11.133 15.3333 11.7063 15.3333 12.3997C15.3333 13.093 15.9066 13.6663 16.5999 13.6663H20.6666C24.5599 13.6663 27.6799 10.3197 27.3066 6.34634C26.9733 2.87967 23.8533 0.333008 20.3733 0.333008Z" fill="#222222"/>
</svg>
