<svg width="25" height="24" viewBox="0 0 25 24" fill="none" xmlns="http://www.w3.org/2000/svg">
<path d="M5 22.5H14C14.3977 22.4996 14.779 22.3414 15.0602 22.0602C15.3414 21.779 15.4996 21.3977 15.5 21V18.75H14V21H5V3H14V5.25H15.5V3C15.4996 2.6023 15.3414 2.221 15.0602 1.93978C14.779 1.65856 14.3977 1.5004 14 1.5H5C4.6023 1.5004 4.221 1.65856 3.93978 1.93978C3.65856 2.221 3.5004 2.6023 3.5 3V21C3.5004 21.3977 3.65856 21.779 3.93978 22.0602C4.221 22.3414 4.6023 22.4996 5 22.5Z" fill="white"/>
<path d="M18.8942 10.9848L16.4698 8.5605L17 8.03033L20.9697 12L17 15.9697L16.4698 15.4395L18.8942 13.0152L19.5343 12.375H18.629H8.375V11.625H18.629H19.5343L18.8942 10.9848Z" fill="white" stroke="white" stroke-width="0.75"/>
</svg>
