<svg width="18" height="18" viewBox="0 0 18 18" fill="none" xmlns="http://www.w3.org/2000/svg">
<path d="M16.2001 0.599609C16.5184 0.599609 16.8236 0.726038 17.0486 0.951081C17.2737 1.17612 17.4001 1.48135 17.4001 1.79961V8.09961C17.4001 8.3383 17.3053 8.56722 17.1365 8.73601C16.9677 8.90479 16.7388 8.99961 16.5001 8.99961C16.2614 8.99961 16.0325 8.90479 15.8637 8.73601C15.6949 8.56722 15.6001 8.3383 15.6001 8.09961V3.67041L3.6709 15.5996H8.1001C8.33879 15.5996 8.56771 15.6944 8.73649 15.8632C8.90528 16.032 9.0001 16.2609 9.0001 16.4996C9.0001 16.7383 8.90528 16.9672 8.73649 17.136C8.56771 17.3048 8.33879 17.3996 8.1001 17.3996H1.8001C1.48184 17.3996 1.17661 17.2732 0.951569 17.0481C0.726526 16.8231 0.600098 16.5179 0.600098 16.1996V9.89961C0.600098 9.66091 0.694919 9.432 0.863701 9.26321C1.03248 9.09443 1.2614 8.99961 1.5001 8.99961C1.73879 8.99961 1.96771 9.09443 2.13649 9.26321C2.30528 9.432 2.4001 9.66091 2.4001 9.89961V14.3264L14.3269 2.39961H9.9001C9.6614 2.39961 9.43249 2.30479 9.2637 2.13601C9.09492 1.96722 9.0001 1.7383 9.0001 1.49961C9.0001 1.26091 9.09492 1.032 9.2637 0.863213C9.43249 0.69443 9.6614 0.599609 9.9001 0.599609H16.2001Z" fill="#F1F2F2"/>
</svg>
