<svg width="52" height="36" viewBox="0 0 52 36" fill="none" xmlns="http://www.w3.org/2000/svg">
<g filter="url(#filter0_d_292_45635)">
<rect width="50" height="32" rx="6" fill="#EED202"/>
<path d="M25.6663 9.66634H24.333V6.99967H25.6663V9.66634ZM25.6663 10.9997H24.333V12.333H25.6663V10.9997ZM31.6663 5.66634V13.6663C31.6663 14.02 31.5259 14.3591 31.2758 14.6091C31.0258 14.8592 30.6866 14.9997 30.333 14.9997H20.9997L18.333 17.6663V5.66634C18.333 5.31272 18.4735 4.97358 18.7235 4.72353C18.9736 4.47348 19.3127 4.33301 19.6663 4.33301H30.333C30.6866 4.33301 31.0258 4.47348 31.2758 4.72353C31.5259 4.97358 31.6663 5.31272 31.6663 5.66634ZM30.333 5.66634H19.6663V14.4663L20.4663 13.6663H30.333V5.66634Z" fill="white"/>
<path d="M22.1705 27L23.0585 22.998H22.5485L21.8945 26.262L21.2105 22.998H20.8085L20.1245 26.262L19.4705 22.998H18.9605L19.8485 27H20.3585L21.0065 23.844L21.6605 27H22.1705ZM25.2813 27V24.972C25.2813 24.312 24.8973 24.03 24.3213 24.03C23.9553 24.03 23.6133 24.162 23.3373 24.45L23.5293 24.756C23.7513 24.504 23.9853 24.402 24.2553 24.402C24.6333 24.402 24.8493 24.624 24.8493 25.02V25.524C24.6693 25.266 24.3813 25.152 24.0873 25.152C23.6133 25.152 23.2113 25.5 23.2113 26.106C23.2113 26.712 23.6193 27.072 24.0873 27.072C24.3813 27.072 24.6633 26.952 24.8493 26.688V27H25.2813ZM24.2253 26.76C23.8653 26.76 23.6493 26.472 23.6493 26.112C23.6493 25.752 23.8653 25.47 24.2253 25.47C24.4773 25.47 24.7173 25.596 24.8493 25.842V26.394C24.7173 26.634 24.4773 26.76 24.2253 26.76ZM26.4583 27V24.942C26.5783 24.702 26.8723 24.468 27.1363 24.468C27.1843 24.468 27.2323 24.474 27.2803 24.486V24.042C26.9263 24.042 26.6443 24.258 26.4583 24.564V24.102H26.0323V27H26.4583ZM29.7404 27V24.816C29.7404 24.294 29.5004 24.03 29.0084 24.03C28.6604 24.03 28.3364 24.264 28.1684 24.516V24.102H27.7424V27H28.1684V24.876C28.3004 24.636 28.5644 24.414 28.8464 24.414C29.1344 24.414 29.3084 24.552 29.3084 24.936V27H29.7404Z" fill="white"/>
<rect x="0.5" y="0.5" width="49" height="31" rx="5.5" stroke="#DDE2E4"/>
</g>
<defs>
<filter id="filter0_d_292_45635" x="-2" y="0" width="54" height="36" filterUnits="userSpaceOnUse" color-interpolation-filters="sRGB">
<feFlood flood-opacity="0" result="BackgroundImageFix"/>
<feColorMatrix in="SourceAlpha" type="matrix" values="0 0 0 0 0 0 0 0 0 0 0 0 0 0 0 0 0 0 127 0" result="hardAlpha"/>
<feOffset dy="2"/>
<feGaussianBlur stdDeviation="1"/>
<feComposite in2="hardAlpha" operator="out"/>
<feColorMatrix type="matrix" values="0 0 0 0 0.933333 0 0 0 0 0.823529 0 0 0 0 0.00784314 0 0 0 0.15 0"/>
<feBlend mode="normal" in2="BackgroundImageFix" result="effect1_dropShadow_292_45635"/>
<feBlend mode="normal" in="SourceGraphic" in2="effect1_dropShadow_292_45635" result="shape"/>
</filter>
</defs>
</svg>
