<svg width="28" height="28" viewBox="0 0 28 28" fill="none" xmlns="http://www.w3.org/2000/svg">
<g clip-path="url(#clip0_486_11211)">
<path d="M15.2963 9.0869C15.2922 9.08304 15.2922 9.0869 15.2963 9.0869C15.2883 9.07532 15.2806 9.06761 15.2729 9.05989C15.2652 9.05188 15.2613 9.04416 15.2533 9.03644C15.1482 8.91595 15.1016 8.76815 15.1174 8.62036C15.1328 8.47642 15.2221 8.34405 15.3545 8.25057L16.9221 7.15752C16.9221 7.15752 16.9221 7.15752 16.926 7.15366C17.6106 6.68683 17.8519 5.81934 17.5097 5.03762C17.1245 4.15855 16.222 3.75374 15.4052 4.10008H15.4011H15.3972L11.0405 6.00215C9.86969 6.51588 9.15385 7.67095 9.21617 8.94711C9.26663 9.91551 9.47289 10.853 9.83081 11.7282C9.98632 12.1096 10.2276 12.4595 10.5428 12.767C10.5428 12.767 10.5428 12.767 10.5466 12.7708C11.1378 13.3543 11.5073 14.074 11.7836 15.1748C11.7836 15.1786 11.7836 15.1786 11.7875 15.1825V15.1866C12.69 18.4969 11.667 21.9823 9.11497 24.2889C8.49648 24.8492 8.41101 25.7829 8.92058 26.4596L8.99448 26.5569C9.27464 26.9264 9.67144 27.1558 10.1187 27.1989C10.1691 27.2027 10.216 27.2066 10.2665 27.2066C10.6633 27.2066 11.0562 27.0549 11.3595 26.7786C11.3634 26.7748 11.3672 26.7709 11.3711 26.767C11.375 26.7632 11.3791 26.759 11.383 26.7552C12.406 25.736 13.2966 24.5848 14.0359 23.3437L13.8492 26.2806C13.7985 27.1558 14.4716 27.9183 15.3506 27.9844H15.3545L15.518 27.9963H15.5219C15.5608 28.0002 15.6035 28.0002 15.6424 28.0002C16.4633 28.0002 17.1557 27.3894 17.2489 26.5608L18.1321 18.5085C18.1321 18.5047 18.1321 18.5008 18.1321 18.4969C18.1321 18.4931 18.1321 18.4892 18.1321 18.4851C18.3769 15.3537 17.3423 11.9229 15.2963 9.0869ZM16.817 18.3996L15.9341 26.4364C15.9148 26.5958 15.7863 26.7047 15.6189 26.6931L15.4596 26.6813C15.2922 26.6697 15.1678 26.5335 15.1755 26.3702L15.5839 19.909C15.5839 19.9052 15.5839 19.901 15.5839 19.8971C15.5839 19.8817 15.5839 19.8701 15.5839 19.8544C15.5839 19.8467 15.5839 19.839 15.5839 19.8271C15.5839 19.8155 15.5839 19.804 15.5801 19.7882C15.5801 19.7767 15.5762 19.7689 15.5762 19.7612C15.5762 19.7494 15.5723 19.7416 15.5685 19.7301C15.5646 19.7182 15.5646 19.7066 15.5608 19.695C15.5569 19.6873 15.5569 19.6793 15.553 19.6677C15.5492 19.6562 15.545 19.6443 15.5412 19.6327C15.5373 19.625 15.5335 19.6173 15.5335 19.6093C15.5296 19.5977 15.5257 19.5861 15.518 19.5743C15.5142 19.5665 15.51 19.5588 15.5062 19.5511C15.5023 19.5392 15.4946 19.5315 15.4907 19.5199C15.4869 19.5122 15.4791 19.5045 15.475 19.4926C15.4711 19.4849 15.4634 19.4772 15.4557 19.4653C15.448 19.4576 15.44 19.446 15.4323 19.4383C15.4284 19.4303 15.4207 19.4226 15.4168 19.4187C15.4091 19.411 15.4011 19.3994 15.3895 19.3914C15.3818 19.3837 15.3779 19.3799 15.3702 19.3721C15.3622 19.3644 15.3506 19.3564 15.3429 19.3487C15.3352 19.3448 15.3272 19.3371 15.3195 19.3333C15.3118 19.3255 15.3002 19.3214 15.2922 19.3137C15.2845 19.306 15.2729 19.3021 15.2652 19.2944C15.2572 19.2905 15.2494 19.2864 15.2417 19.2787C15.2301 19.2709 15.2183 19.2671 15.2067 19.2594C15.199 19.2555 15.1913 19.2516 15.1833 19.2475C15.1717 19.2436 15.1562 19.2359 15.1444 19.2321C15.1405 19.2321 15.1405 19.2282 15.1367 19.2282C15.1328 19.2282 15.1251 19.2243 15.1212 19.2243C15.1094 19.2205 15.0939 19.2166 15.0823 19.2125C15.0705 19.2086 15.0628 19.2086 15.0512 19.2048C15.0393 19.2009 15.0316 19.2009 15.02 19.2009C15.0085 19.2009 14.9927 19.197 14.9811 19.197C14.9773 19.197 14.9696 19.197 14.9654 19.197C14.9616 19.197 14.9577 19.197 14.9577 19.197C14.9423 19.197 14.9265 19.197 14.915 19.197C14.9072 19.197 14.8995 19.197 14.8915 19.197C14.8761 19.197 14.8645 19.2009 14.8488 19.2009C14.8411 19.2009 14.8334 19.2009 14.8256 19.2048C14.8138 19.2086 14.7983 19.2086 14.7865 19.2125C14.7787 19.2125 14.771 19.2166 14.7633 19.2166C14.7517 19.2205 14.7399 19.2243 14.7283 19.2282C14.7206 19.2321 14.7087 19.2321 14.701 19.2359C14.6894 19.2398 14.6775 19.2436 14.666 19.2475C14.6582 19.2516 14.6505 19.2555 14.6387 19.2594C14.6271 19.2632 14.6155 19.2709 14.6078 19.2748C14.5998 19.2787 14.5921 19.2825 14.5844 19.2864C14.5728 19.2944 14.5609 19.3021 14.5493 19.3098C14.5416 19.3137 14.5378 19.3175 14.5297 19.3214C14.5182 19.3294 14.5066 19.3371 14.4989 19.3487C14.4947 19.3526 14.487 19.3564 14.4831 19.3606C14.4716 19.3683 14.4639 19.3799 14.452 19.3914C14.4481 19.3953 14.4404 19.4033 14.4366 19.4072C14.4288 19.4187 14.417 19.4265 14.4093 19.4383C14.4054 19.446 14.3977 19.4499 14.3938 19.4576C14.3858 19.4653 14.3781 19.4772 14.3742 19.4888C14.3704 19.4965 14.3627 19.5045 14.3588 19.5161C14.3549 19.5238 14.3469 19.5354 14.3431 19.5434C14.3354 19.555 14.3315 19.5665 14.3276 19.5743C14.3238 19.5823 14.3199 19.59 14.3161 19.5977C14.3119 19.6093 14.3042 19.625 14.3003 19.6366C14.3003 19.6404 14.2965 19.6443 14.2965 19.6443C13.5145 21.9512 12.192 24.0791 10.4686 25.8022C10.4027 25.8607 10.3208 25.8877 10.2469 25.88C10.2199 25.8761 10.1341 25.8684 10.0525 25.7595L9.9786 25.6621C9.88126 25.5339 9.88927 25.3665 10.0021 25.2653C11.4257 23.9779 12.4641 22.3245 13.0049 20.4806C13.5456 18.6409 13.5652 16.6919 13.0633 14.8442C12.8378 13.9455 12.4526 12.7901 11.4723 11.8217L11.4684 11.8179L11.4646 11.814C11.2779 11.6351 11.1378 11.4365 11.0524 11.2225C10.7526 10.4835 10.5775 9.69381 10.5348 8.87321C10.4998 8.15352 10.9046 7.49615 11.5658 7.20827L15.9148 5.30591C16.1327 5.21657 16.292 5.5549 16.292 5.55876C16.3582 5.70656 16.3659 5.9244 16.1715 6.0529L16.1677 6.05676L16.1635 6.06062L14.5959 7.15366C14.1564 7.46113 13.8685 7.93568 13.8062 8.44911C13.7442 8.95483 13.8997 9.4644 14.2303 9.8612C16.0896 12.4518 17.031 15.5561 16.817 18.3996Z" fill="#88BD36"/>
<path d="M8.0685 6.4224C7.81179 6.26688 7.47732 6.35236 7.3218 6.60907L2.42046 14.7703C2.41661 14.7741 2.41661 14.778 2.41245 14.7818C2.39702 14.8053 2.38544 14.8287 2.37357 14.8519L1.89902 15.6455C1.72421 15.9411 1.75894 16.3147 1.98479 16.5714L2.99206 17.7033C3.19061 17.925 3.46276 18.0455 3.75064 18.0455C3.8091 18.0455 3.87143 18.0417 3.9296 18.0301C4.27208 17.9678 4.56382 17.7422 4.70004 17.4348C4.7039 17.4309 4.7039 17.427 4.7039 17.4232C4.70776 17.4155 4.70776 17.4116 4.71161 17.4039V17.4C4.71161 17.3959 4.71161 17.3959 4.71547 17.392L4.80095 17.1549C4.80095 17.1549 4.80095 17.1549 4.80095 17.151C5.04994 16.5052 4.82439 15.7817 4.24864 15.3849L3.58741 14.9296L8.24746 7.16524C8.41099 6.91238 8.32522 6.57791 8.0685 6.4224Z" fill="#88BD36"/>
<path d="M25.7098 9.59258C25.0794 7.62819 23.9748 5.81931 22.5158 4.36063C21.0572 2.90195 19.2524 1.79317 17.2919 1.15925C17.0349 1.07764 16.7627 1.21772 16.6811 1.47057C16.5992 1.72729 16.7393 1.99944 16.9921 2.08105C20.6838 3.2753 23.5935 6.19296 24.7838 9.88432C25.9742 13.576 25.3088 17.6448 23.0061 20.7685C22.8467 20.9863 22.8933 21.2899 23.1073 21.4493C23.1928 21.5116 23.294 21.5428 23.3952 21.5428C23.543 21.5428 23.6908 21.4727 23.7881 21.3442C25.0094 19.6831 25.8341 17.7306 26.1648 15.6962C26.4992 13.6695 26.3399 11.557 25.7098 9.59258Z" fill="#88BD36"/>
<path d="M21.3062 8.67461C21.0572 8.77967 20.9444 9.06755 21.0495 9.31269C22.4188 12.5218 22.092 16.1784 20.1781 19.0919C20.0303 19.3175 20.0926 19.6172 20.3182 19.765C20.3998 19.8193 20.4933 19.8466 20.5826 19.8466C20.7423 19.8466 20.8978 19.7689 20.991 19.6288C23.0839 16.439 23.4418 12.4402 21.9442 8.93518C21.8392 8.68618 21.5552 8.56955 21.3062 8.67461Z" fill="#88BD36"/>
<path d="M10.7022 5.16577C12.1258 5.16577 13.285 4.00655 13.285 2.58289C13.285 1.15923 12.1258 0 10.7022 0C9.2785 0 8.11927 1.15923 8.11927 2.58289C8.11541 4.00655 9.27464 5.16577 10.7022 5.16577ZM10.7022 1.3186C11.3984 1.3186 11.9626 1.88278 11.9626 2.57903C11.9626 3.27528 11.3984 3.83946 10.7022 3.83946C10.0059 3.83946 9.44173 3.27528 9.44173 2.57903C9.43787 1.88664 10.0059 1.3186 10.7022 1.3186Z" fill="#88BD36"/>
</g>
<defs>
<clipPath id="clip0_486_11211">
<rect width="28" height="28" fill="white"/>
</clipPath>
</defs>
</svg>
