<svg width="27" height="41" viewBox="0 0 27 41" fill="none" xmlns="http://www.w3.org/2000/svg">
<path d="M26.0843 9.79299C24.6254 4.03317 19.4418 -0.000720177 13.5 4.31751e-07C7.56937 -0.00152085 2.39219 4.01731 0.922952 9.76305C-0.546289 15.5088 2.06616 21.5195 7.26943 24.3651C7.26855 24.3882 7.26207 24.4093 7.26207 24.4327C7.26207 25.6988 8.4654 27.6448 10.4061 28.5793C10.8238 28.8478 11.586 31.3627 11.4844 38.9527C11.4717 39.6806 11.8533 40.3587 12.4821 40.7257C13.1109 41.0927 13.8889 41.0915 14.5166 40.7225C15.1442 40.3535 15.5237 39.6742 15.5088 38.9463C15.373 31.3586 16.1193 28.8472 16.5297 28.5809C18.4776 27.6429 19.6833 25.6975 19.6833 24.4328C19.6833 24.42 19.6796 24.4087 19.6794 24.396C24.9049 21.5679 27.5432 15.5528 26.0843 9.79299ZM15.9391 27.3485C15.3957 27.6073 13.9514 28.2953 14.1426 38.9776C14.1478 39.1473 14.0836 39.3118 13.9648 39.4331C13.7054 39.684 13.294 39.6846 13.034 39.4344C12.913 39.3123 12.8469 39.1463 12.8508 38.9744C12.9939 28.2987 11.545 27.6084 11.0022 27.3499C10.0154 26.8741 9.22917 26.0639 8.78343 25.0633C11.79 26.2549 15.1362 26.2637 18.149 25.088C17.6994 26.0767 16.9174 26.8765 15.9391 27.3485ZM13.5 24.5968C7.08512 24.5968 1.8848 19.3965 1.8848 12.9816C1.8848 6.56675 7.08512 1.36651 13.5 1.36651C19.9148 1.36651 25.1152 6.56675 25.1152 12.9816C25.108 19.3935 19.912 24.5897 13.5 24.5968Z" fill="white"/>
<path d="M5.56066 17.1355C5.3062 17.0284 5.01227 17.0852 4.81603 17.2793C4.5518 17.5487 4.5518 17.9801 4.81603 18.2495C4.84933 18.2806 4.88593 18.308 4.92508 18.3312C4.95999 18.3583 4.99922 18.3792 5.04118 18.393C5.08001 18.4126 5.12148 18.4264 5.16432 18.4341C5.20956 18.4419 5.25528 18.4465 5.30116 18.4477C5.39075 18.4501 5.47963 18.4313 5.56074 18.3931C5.64345 18.3583 5.71975 18.3098 5.78629 18.2496C6.05051 17.9801 6.05051 17.5488 5.78629 17.2794C5.71975 17.2189 5.64345 17.1702 5.56066 17.1355Z" fill="white"/>
<path d="M8.51912 18.6457C8.48477 18.6184 8.45074 18.591 8.41671 18.5637C8.3786 18.5377 8.3372 18.517 8.29357 18.5019C8.25481 18.4822 8.21334 18.4685 8.1705 18.4612C7.94559 18.4162 7.71291 18.4853 7.54894 18.6457C7.42403 18.7766 7.35325 18.9499 7.35077 19.1309C7.35181 19.1766 7.35637 19.2222 7.36446 19.2673C7.37175 19.3101 7.38552 19.3516 7.40514 19.3903C7.42019 19.4339 7.44092 19.4754 7.46687 19.5135C7.49417 19.5475 7.52155 19.5816 7.54894 19.6159C7.67993 19.7406 7.85319 19.8113 8.03407 19.8141C8.07978 19.8128 8.12542 19.8082 8.1705 19.8004C8.21334 19.7928 8.25481 19.7789 8.29365 19.7593C8.3372 19.7443 8.37868 19.7235 8.41679 19.6976C8.49117 19.6507 8.55411 19.5878 8.60095 19.5134C8.62689 19.4753 8.64762 19.4339 8.66268 19.3903C8.68229 19.3514 8.69615 19.31 8.70375 19.2671C8.7116 19.222 8.71616 19.1764 8.71744 19.1307C8.71464 18.9499 8.64386 18.7767 8.51912 18.6457Z" fill="white"/>
<path d="M11.2521 19.3289C11.1868 19.2671 11.1103 19.2182 11.0266 19.1851C10.8601 19.117 10.6736 19.117 10.5072 19.1851C10.4245 19.2198 10.3483 19.2684 10.282 19.3289C10.0177 19.5983 10.0177 20.0296 10.282 20.2991C10.3484 20.3593 10.4246 20.4078 10.5072 20.4425C10.6727 20.5155 10.8612 20.5155 11.0266 20.4425C11.1093 20.4078 11.1856 20.3593 11.2521 20.2991C11.5163 20.0296 11.5163 19.5983 11.2521 19.3289Z" fill="white"/>
<path d="M9.78325 21.2965C9.74513 21.2706 9.70374 21.2499 9.6601 21.2348C9.62135 21.2151 9.57987 21.2014 9.53696 21.1941C9.31197 21.1482 9.07889 21.2173 8.91539 21.3786C8.79057 21.5095 8.71979 21.6828 8.71722 21.8636C8.71827 21.9094 8.72291 21.955 8.73092 22.0001C8.7382 22.0429 8.75197 22.0844 8.77159 22.1232C8.78656 22.1668 8.80738 22.2083 8.83332 22.2464C8.86063 22.2804 8.88801 22.3144 8.91539 22.3488C9.04638 22.4735 9.21965 22.5442 9.40044 22.5469C9.44616 22.5457 9.4918 22.5411 9.53688 22.5333C9.57971 22.5256 9.62119 22.5118 9.66002 22.4923C9.70358 22.4772 9.74505 22.4565 9.78316 22.4305C9.81719 22.4035 9.85122 22.3762 9.88557 22.3488C9.91287 22.3144 9.94026 22.2804 9.96732 22.2464C9.99326 22.2083 10.014 22.1669 10.0291 22.1232C10.0487 22.0844 10.0625 22.0429 10.0701 22.0001C10.078 21.955 10.0825 21.9094 10.0838 21.8636C10.0812 21.6828 10.0104 21.5096 9.88565 21.3785C9.85322 21.3492 9.81896 21.3218 9.78325 21.2965Z" fill="white"/>
<path d="M12.6186 22.0619C12.5843 22.0346 12.5502 22.0073 12.5162 21.9799C12.4781 21.9539 12.4367 21.9332 12.3931 21.9181C12.3543 21.8985 12.3128 21.8848 12.2699 21.8775C12.0449 21.8315 11.8119 21.9007 11.6484 22.0619C11.588 22.1282 11.5393 22.2045 11.5046 22.2872C11.4696 22.3694 11.4511 22.4577 11.4502 22.5471C11.4528 22.728 11.5235 22.9012 11.6484 23.0322C11.6807 23.0617 11.7149 23.089 11.7508 23.114C11.7888 23.1398 11.8301 23.1606 11.8735 23.1757C11.9123 23.1953 11.9538 23.2092 11.9967 23.2168C12.0419 23.2243 12.0876 23.2289 12.1335 23.2305C12.1792 23.2292 12.2248 23.2246 12.2699 23.2168C12.3128 23.2092 12.3542 23.1953 12.3931 23.1757C12.4366 23.1606 12.4781 23.1399 12.5162 23.114C12.552 23.0888 12.5862 23.0615 12.6186 23.0322C12.7433 22.9011 12.814 22.728 12.8168 22.5471C12.8157 22.4577 12.7972 22.3694 12.7621 22.2872C12.7274 22.2046 12.6788 22.1284 12.6186 22.0619Z" fill="white"/>
<path d="M15.3516 22.062C15.2851 22.0017 15.2089 21.953 15.126 21.9182C14.8716 21.8111 14.5777 21.8679 14.3813 22.062C14.321 22.1283 14.2723 22.2046 14.2375 22.2873C14.2025 22.3695 14.1841 22.4578 14.1832 22.5472C14.1832 22.9245 14.489 23.2304 14.8664 23.2304C15.2437 23.2304 15.5496 22.9245 15.5496 22.5472C15.5486 22.4578 15.53 22.3695 15.4949 22.2873C15.4602 22.2046 15.4117 22.1285 15.3516 22.062Z" fill="white"/>
<path d="M17.9822 21.2965C17.944 21.2706 17.9027 21.2499 17.859 21.2348C17.8203 21.2151 17.7788 21.2014 17.7359 21.1941C17.5109 21.1482 17.2778 21.2173 17.1143 21.3786C16.9895 21.5095 16.9187 21.6828 16.9161 21.8636C16.9172 21.9094 16.9217 21.955 16.9298 22.0001C16.9371 22.0429 16.9509 22.0844 16.9705 22.1232C16.9856 22.1668 17.0063 22.2083 17.0322 22.2464C17.0595 22.2804 17.0869 22.3144 17.1143 22.3488C17.2453 22.4735 17.4186 22.5442 17.5994 22.5469C17.6452 22.5457 17.6908 22.5411 17.7359 22.5333C17.7787 22.5256 17.8202 22.5118 17.859 22.4923C17.9026 22.4772 17.944 22.4565 17.9822 22.4305C18.0162 22.4035 18.0502 22.3762 18.0846 22.3488C18.1119 22.3144 18.1392 22.2804 18.1663 22.2464C18.1923 22.2083 18.213 22.1669 18.228 22.1232C18.2477 22.0844 18.2615 22.0429 18.2691 22.0001C18.277 21.955 18.2815 21.9094 18.2828 21.8636C18.2802 21.6828 18.2094 21.5096 18.0846 21.3785C18.0521 21.3492 18.0179 21.3218 17.9822 21.2965Z" fill="white"/>
<path d="M13.9851 19.3289C13.8118 19.1556 13.5592 19.0879 13.3225 19.1513C13.0857 19.2148 12.9008 19.3997 12.8373 19.6365C12.7739 19.8732 12.8416 20.1258 13.0149 20.2991C13.0473 20.3286 13.0815 20.3559 13.1173 20.3809C13.1554 20.4067 13.1967 20.4275 13.2401 20.4426C13.2789 20.4622 13.3204 20.4761 13.3632 20.4837C13.4085 20.4912 13.4542 20.4958 13.5001 20.4973C13.5458 20.496 13.5914 20.4914 13.6365 20.4836C13.6793 20.476 13.7208 20.4621 13.7596 20.4425C13.8031 20.4275 13.8446 20.4067 13.8827 20.3808C13.9185 20.3556 13.9527 20.3283 13.9851 20.299C14.2493 20.0297 14.2493 19.5983 13.9851 19.3289Z" fill="white"/>
<path d="M16.7181 19.329C16.6837 19.3016 16.6497 19.2742 16.6157 19.2468C16.5776 19.2209 16.5362 19.2002 16.4925 19.1851C16.4538 19.1654 16.4123 19.1517 16.3694 19.1444C16.1446 19.1019 15.9131 19.1706 15.7478 19.3289C15.7205 19.3629 15.6931 19.397 15.6658 19.438C15.6387 19.4729 15.6178 19.5122 15.604 19.5541C15.5843 19.5929 15.5706 19.6344 15.5633 19.6773C15.5557 19.7225 15.5511 19.7682 15.5497 19.8141C15.5479 19.9959 15.6193 20.1707 15.7478 20.2992C15.8763 20.4277 16.0511 20.4991 16.2329 20.4973C16.2786 20.496 16.3242 20.4915 16.3693 20.4836C16.4121 20.476 16.4536 20.4622 16.4925 20.4426C16.536 20.4276 16.5775 20.4068 16.6156 20.3808C16.6514 20.3557 16.6856 20.3284 16.718 20.2991C16.9823 20.0297 16.9823 19.5983 16.7181 19.329Z" fill="white"/>
<path d="M19.3486 18.5636C19.3105 18.5377 19.2691 18.5169 19.2255 18.5019C19.1867 18.4822 19.1452 18.4685 19.1023 18.4612C18.8773 18.4153 18.6443 18.4844 18.4808 18.6457C18.3559 18.7766 18.2852 18.9499 18.2826 19.1307C18.2836 19.1765 18.2883 19.2221 18.2963 19.2672C18.3036 19.31 18.3173 19.3515 18.337 19.3902C18.3519 19.4338 18.3727 19.4753 18.3987 19.5134C18.426 19.5474 18.4534 19.5814 18.4808 19.6158C18.6117 19.7405 18.785 19.8112 18.9658 19.814C19.0115 19.8127 19.0572 19.8081 19.1022 19.8003C19.1451 19.7927 19.1866 19.7788 19.2254 19.7592C19.2689 19.7442 19.3104 19.7234 19.3485 19.6975C19.4229 19.6506 19.4858 19.5877 19.5327 19.5133C19.5586 19.4752 19.5794 19.4338 19.5944 19.3902C19.614 19.3513 19.6279 19.3099 19.6355 19.267C19.6433 19.2219 19.6479 19.1763 19.6492 19.1306C19.6465 18.9497 19.5758 18.7765 19.451 18.6454C19.4167 18.6183 19.3826 18.591 19.3486 18.5636Z" fill="white"/>
<path d="M21.9585 17.1354C21.7935 17.0603 21.604 17.0604 21.439 17.1354C21.3563 17.1701 21.2802 17.2187 21.2138 17.2792C21.089 17.4101 21.0182 17.5834 21.0156 17.7643C21.0167 17.8101 21.0213 17.8557 21.0293 17.9008C21.0366 17.9436 21.0504 17.9851 21.07 18.0239C21.085 18.0675 21.1058 18.1089 21.1317 18.1471C21.159 18.1811 21.1864 18.2151 21.2138 18.2495C21.2802 18.3097 21.3564 18.3582 21.439 18.3929C21.6045 18.4659 21.793 18.4659 21.9584 18.3929C22.0411 18.3582 22.1174 18.3097 22.184 18.2495C22.2113 18.2151 22.2387 18.1811 22.2657 18.1471C22.2917 18.1089 22.3124 18.0675 22.3275 18.0239C22.3471 17.9851 22.3609 17.9436 22.3685 17.9008C22.3764 17.8557 22.3809 17.81 22.3822 17.7643C22.3796 17.5835 22.3088 17.4103 22.1841 17.2792C22.1176 17.2188 22.0414 17.1701 21.9585 17.1354Z" fill="white"/>
<path d="M4.41969 13.8629C4.22008 13.675 3.93 13.619 3.67474 13.7191C3.59203 13.7539 3.51581 13.8025 3.44951 13.8629C3.32468 13.9938 3.2539 14.1671 3.25134 14.3481C3.2523 14.4373 3.2708 14.5255 3.30571 14.6076C3.36816 14.7791 3.50324 14.9141 3.67466 14.9766C3.75689 15.0117 3.8452 15.0302 3.93456 15.0314C4.11543 15.0286 4.28862 14.9579 4.41969 14.8332C4.4799 14.7667 4.52842 14.6904 4.56317 14.6076C4.59816 14.5255 4.61674 14.4373 4.61786 14.3481C4.61522 14.1672 4.54443 13.994 4.41969 13.8629Z" fill="white"/>
<path d="M7.29612 15.4547C7.23367 15.2832 7.0986 15.1482 6.92717 15.0857C6.76071 15.0177 6.57415 15.0177 6.40777 15.0857C6.23651 15.1485 6.10159 15.2834 6.03882 15.4547C6.00383 15.5369 5.98534 15.6252 5.98438 15.7146C5.98694 15.8954 6.05772 16.0687 6.18254 16.1997C6.249 16.2599 6.32514 16.3084 6.40777 16.3432C6.57327 16.4161 6.76175 16.4161 6.92717 16.3432C7.00988 16.3084 7.08619 16.2599 7.15272 16.1997C7.27739 16.0686 7.34817 15.8954 7.35089 15.7146C7.34977 15.6251 7.33119 15.5369 7.29612 15.4547Z" fill="white"/>
<path d="M23.5505 13.863C23.4841 13.8026 23.4079 13.7539 23.325 13.7192C23.2003 13.6648 23.0617 13.6506 22.9287 13.6785C22.8858 13.6858 22.8444 13.6996 22.8055 13.7192C22.762 13.7342 22.7208 13.7551 22.6828 13.7809C22.6469 13.8061 22.6126 13.8334 22.5804 13.863C22.4555 13.9939 22.3848 14.1672 22.3822 14.3481C22.3832 14.4374 22.4017 14.5255 22.4366 14.6077C22.4713 14.6905 22.5199 14.7668 22.5804 14.8332C22.7114 14.958 22.8846 15.0287 23.0655 15.0314C23.1548 15.0303 23.2429 15.0117 23.3251 14.9767C23.4967 14.9145 23.6318 14.7794 23.694 14.6078C23.7291 14.5256 23.7477 14.4375 23.7488 14.3482C23.746 14.1672 23.6752 13.9941 23.5505 13.863Z" fill="white"/>
<path d="M20.961 15.4547C20.8985 15.2832 20.7635 15.1482 20.592 15.0857C20.4256 15.0177 20.239 15.0177 20.0726 15.0857C19.9014 15.1485 19.7664 15.2834 19.7037 15.4547C19.6687 15.5369 19.6502 15.6252 19.6492 15.7146C19.6518 15.8954 19.7226 16.0687 19.8474 16.1997C19.9139 16.2599 19.99 16.3084 20.0726 16.3432C20.2381 16.4161 20.4266 16.4161 20.592 16.3432C20.6747 16.3084 20.751 16.2599 20.8176 16.1997C20.9422 16.0686 21.013 15.8954 21.0157 15.7146C21.0146 15.6251 20.996 15.5369 20.961 15.4547Z" fill="white"/>
<path d="M8.91547 16.8829C8.98193 16.9431 9.05807 16.9916 9.1407 17.0264C9.3062 17.0993 9.49468 17.0993 9.6601 17.0264C9.83169 16.9642 9.96684 16.829 10.0291 16.6574C10.102 16.4919 10.102 16.3034 10.0291 16.138C9.9666 15.9666 9.83153 15.8315 9.6601 15.7691C9.49364 15.701 9.30708 15.701 9.1407 15.7691C8.96944 15.8318 8.83453 15.9667 8.77175 16.138C8.69921 16.3036 8.69921 16.4919 8.77175 16.6574C8.80642 16.7402 8.8551 16.8164 8.91547 16.8829Z" fill="white"/>
<path d="M12.1335 17.7645C12.3153 17.7662 12.4901 17.6948 12.6186 17.5663C12.7471 17.4378 12.8185 17.263 12.8168 17.0813C12.8156 17.0354 12.811 16.9897 12.8031 16.9445C12.7955 16.9017 12.7816 16.8602 12.762 16.8214C12.7482 16.7794 12.7273 16.7402 12.7003 16.7053C12.677 16.666 12.6497 16.6294 12.6185 16.5961C12.3446 16.3433 11.9223 16.3433 11.6483 16.5961C11.621 16.6302 11.5936 16.6642 11.5663 16.7053C11.5392 16.7402 11.5183 16.7794 11.5045 16.8214C11.4848 16.8601 11.4711 16.9016 11.4639 16.9445C11.4558 16.9897 11.4512 17.0355 11.4502 17.0813C11.4484 17.2631 11.5198 17.4379 11.6483 17.5664C11.7768 17.6949 11.9518 17.7662 12.1335 17.7645Z" fill="white"/>
<path d="M14.8665 17.7645C15.0483 17.7662 15.2231 17.6948 15.3516 17.5663C15.4801 17.4378 15.5515 17.263 15.5497 17.0813C15.5485 17.0354 15.544 16.9897 15.536 16.9445C15.5284 16.9017 15.5146 16.8602 15.495 16.8214C15.4812 16.7794 15.4603 16.7402 15.4332 16.7053C15.41 16.666 15.3826 16.6294 15.3515 16.5961C15.0776 16.3433 14.6553 16.3433 14.3813 16.5961C14.3501 16.6294 14.3226 16.666 14.2992 16.7053C14.2722 16.7402 14.2513 16.7794 14.2375 16.8214C14.2178 16.8601 14.2041 16.9016 14.1968 16.9445C14.1887 16.9897 14.1842 17.0355 14.1831 17.0813C14.1814 17.2631 14.2528 17.4379 14.3813 17.5664C14.51 17.6948 14.6848 17.7662 14.8665 17.7645Z" fill="white"/>
<path d="M17.1144 16.883C17.2454 17.0078 17.4186 17.0785 17.5995 17.0812C17.6888 17.0801 17.7769 17.0615 17.8591 17.0265C17.9427 16.9934 18.0192 16.9447 18.0846 16.883C18.1449 16.8165 18.1934 16.7402 18.2281 16.6575C18.3011 16.492 18.3011 16.3035 18.2281 16.1381C18.1934 16.0555 18.1449 15.9793 18.0846 15.9129C18.0193 15.851 17.9428 15.8022 17.8591 15.7691C17.6046 15.6619 17.3107 15.7187 17.1145 15.9129C17.0541 15.9792 17.0054 16.0554 16.9707 16.1381C16.8981 16.3037 16.8981 16.492 16.9707 16.6575C17.0053 16.7403 17.0539 16.8166 17.1144 16.883Z" fill="white"/>
</svg>
