<svg width="32" height="32" viewBox="0 0 32 32" fill="none" xmlns="http://www.w3.org/2000/svg">
<path d="M27 27.0001V14.4425C27 14.3031 26.9709 14.1653 26.9145 14.0379C26.8582 13.9105 26.7758 13.7963 26.6727 13.7025L16.672 4.61066C16.4879 4.44331 16.2481 4.35058 15.9993 4.35059C15.7505 4.35059 15.5106 4.44334 15.3266 4.6107L5.32726 13.7026C5.22418 13.7963 5.14183 13.9105 5.08547 14.0379C5.02911 14.1653 5 14.3031 5 14.4424V27.0001" stroke="currentColor" stroke-width="1.2" stroke-linecap="round" stroke-linejoin="round"/>
<path d="M2 27H30" stroke="currentColor" stroke-width="1.2" stroke-linecap="round" stroke-linejoin="round"/>
<path d="M18.9993 26.999V19.999C18.9993 19.7338 18.8939 19.4795 18.7064 19.2919C18.5188 19.1044 18.2645 18.999 17.9993 18.999H13.9993C13.7341 18.999 13.4797 19.1044 13.2922 19.2919C13.1046 19.4795 12.9993 19.7338 12.9993 19.999V26.999" stroke="currentColor" stroke-width="1.2" stroke-linecap="round" stroke-linejoin="round"/>
</svg>
