<svg width="28" height="28" viewBox="0 0 28 28" fill="none" xmlns="http://www.w3.org/2000/svg">
<g clip-path="url(#clip0_486_11220)">
<path d="M11.2252 11.9826C11.4252 12.0923 11.6521 12.1433 11.8799 12.1298C12.1076 12.1164 12.3269 12.039 12.5127 11.9066C12.7085 11.7674 12.8609 11.5757 12.9524 11.3535C13.0438 11.1314 13.0705 10.8879 13.0293 10.6512L12.8426 9.51863L13.6318 8.72016C13.7986 8.55082 13.9152 8.33845 13.9684 8.10674C14.0217 7.87503 14.0095 7.63309 13.9332 7.4079C13.8626 7.18888 13.7325 6.99383 13.5574 6.84458C13.3822 6.69532 13.169 6.59774 12.9416 6.56276L11.8654 6.40036L11.381 5.38023C11.283 5.16729 11.1259 4.98693 10.9285 4.8605C10.7311 4.73407 10.5015 4.66687 10.2671 4.66687C10.0327 4.66687 9.80314 4.73407 9.60572 4.8605C9.40829 4.98693 9.25124 5.16729 9.15317 5.38023L8.66877 6.40036L7.59264 6.56276C7.3652 6.59774 7.15198 6.69532 6.97685 6.84458C6.80171 6.99383 6.67156 7.18888 6.60097 7.4079C6.52473 7.63309 6.51255 7.87503 6.56578 8.10674C6.61901 8.33845 6.73556 8.55082 6.90244 8.72016L7.6911 9.52003L7.50444 10.6526C7.46329 10.8893 7.48996 11.1328 7.58138 11.3549C7.6728 11.5771 7.82522 11.7688 8.02104 11.908C8.20666 12.0407 8.42602 12.1183 8.65383 12.1318C8.88164 12.1452 9.10861 12.094 9.30857 11.984L10.2666 11.459L11.2252 11.9826ZM8.86057 11.1632C8.81432 11.19 8.76117 11.2026 8.70779 11.1994C8.65441 11.1961 8.60317 11.1772 8.5605 11.145C8.50748 11.1071 8.46651 11.0547 8.44251 10.9941C8.4185 10.9335 8.41248 10.8673 8.42517 10.8034L8.65104 9.4365C8.66309 9.36368 8.65771 9.28903 8.63532 9.2187C8.61293 9.14837 8.57417 9.08435 8.52224 9.0319L7.56604 8.06356C7.5206 8.01674 7.48907 7.95822 7.47498 7.89451C7.46089 7.83081 7.46479 7.76445 7.48624 7.70283C7.50265 7.64735 7.53432 7.59759 7.57764 7.55922C7.62096 7.52086 7.67417 7.49543 7.73124 7.48583L9.05284 7.2861C9.1284 7.27468 9.20001 7.24488 9.26136 7.19931C9.32271 7.15374 9.37193 7.09381 9.4047 7.02476L9.99597 5.78063C10.0182 5.72714 10.0557 5.68142 10.1039 5.64926C10.1521 5.6171 10.2087 5.59994 10.2666 5.59994C10.3246 5.59994 10.3812 5.6171 10.4294 5.64926C10.4775 5.68142 10.5151 5.72714 10.5373 5.78063L11.1286 7.02476C11.1613 7.09381 11.2106 7.15374 11.2719 7.19931C11.3333 7.24488 11.4049 7.27468 11.4804 7.2861L12.802 7.48583C12.8591 7.49543 12.9123 7.52086 12.9556 7.55922C12.9989 7.59759 13.0306 7.64735 13.047 7.70283C13.0685 7.76445 13.0724 7.83081 13.0583 7.89451C13.0442 7.95822 13.0127 8.01674 12.9672 8.06356L12.011 9.0319C11.9591 9.08435 11.9203 9.14837 11.898 9.2187C11.8756 9.28903 11.8702 9.36368 11.8822 9.4365L12.1081 10.8034C12.1208 10.8673 12.1148 10.9335 12.0908 10.9941C12.0668 11.0547 12.0258 11.1071 11.9728 11.145C11.93 11.1769 11.8788 11.1957 11.8255 11.1989C11.7721 11.2021 11.719 11.1897 11.6727 11.1632L10.4902 10.5173C10.4216 10.4799 10.3447 10.4603 10.2666 10.4603C10.1885 10.4603 10.1117 10.4799 10.0431 10.5173L8.86057 11.1632Z" fill="#88BD36"/>
<path d="M23.9442 13.888L25.4249 11.4147C25.5787 11.1598 25.662 10.8687 25.6664 10.5711C25.6707 10.2735 25.5959 9.98005 25.4496 9.72084C25.3032 9.46164 25.0907 9.24596 24.8337 9.09587C24.5766 8.94579 24.2843 8.86669 23.9867 8.86667H23.6273C23.3617 8.41316 22.9755 8.04221 22.5117 7.79505C22.0479 7.5479 21.5246 7.43422 21 7.46667C20.8439 7.46806 20.6881 7.47912 20.5333 7.4998V3.73333C20.5333 3.23826 20.3367 2.76347 19.9866 2.4134C19.6365 2.06333 19.1617 1.86667 18.6667 1.86667H18.5808C18.6361 1.71721 18.6651 1.55934 18.6667 1.4C18.6667 1.0287 18.5192 0.672601 18.2566 0.410051C17.9941 0.1475 17.638 0 17.2667 0L3.26667 0C2.89536 0 2.53927 0.1475 2.27672 0.410051C2.01417 0.672601 1.86667 1.0287 1.86667 1.4C1.86821 1.55934 1.89726 1.71721 1.95253 1.86667H1.86667C1.3716 1.86667 0.896802 2.06333 0.546734 2.4134C0.196666 2.76347 0 3.23826 0 3.73333L0 8.4C0.000741267 9.14238 0.295978 9.85414 0.82092 10.3791C1.34586 10.904 2.05762 11.1993 2.8 11.2H3.04593C3.33908 12.3277 3.89134 13.3714 4.65878 14.2482C5.42623 15.1249 6.38769 15.8104 7.46667 16.2503V21.4667H5.13333C4.76203 21.4667 4.40593 21.6142 4.14338 21.8767C3.88083 22.1393 3.73333 22.4954 3.73333 22.8667V24.2667C3.36203 24.2667 3.00593 24.4142 2.74338 24.6767C2.48083 24.9393 2.33333 25.2954 2.33333 25.6667V27.0667C2.33333 27.3142 2.43167 27.5516 2.6067 27.7266C2.78173 27.9017 3.01913 28 3.26667 28H17.2667C17.4487 27.9998 17.6267 27.9464 17.7788 27.8463C17.9309 27.7462 18.0504 27.6039 18.1225 27.4367C19.0361 27.8092 20.0134 28.0005 21 28C24.8598 28 28 25.1739 28 21.7C28 19.1833 26.1744 15.7122 23.9442 13.888ZM22.8415 9.37673L22.414 11.0871C22.3841 11.2071 22.4031 11.3341 22.4668 11.4402C22.5305 11.5463 22.6337 11.6227 22.7537 11.6527C22.7907 11.6618 22.8286 11.6665 22.8667 11.6667C22.9707 11.6665 23.0717 11.6317 23.1536 11.5676C23.2355 11.5035 23.2937 11.4139 23.3189 11.3129L23.6973 9.8H23.9867C24.1192 9.8004 24.2492 9.83592 24.3636 9.90293C24.4779 9.96994 24.5725 10.066 24.6376 10.1815C24.7027 10.2969 24.736 10.4275 24.7343 10.56C24.7325 10.6926 24.6956 10.8222 24.6274 10.9359L23.0692 13.5333H18.9308L17.3749 10.9359C17.3068 10.8224 17.27 10.6929 17.2681 10.5606C17.2662 10.4283 17.2993 10.2978 17.3642 10.1825C17.429 10.0671 17.5232 9.97098 17.6372 9.9038C17.7512 9.83662 17.881 9.80081 18.0133 9.8H18.3003L18.6783 11.3129C18.7036 11.4143 18.7622 11.5043 18.8447 11.5684C18.9272 11.6326 19.0288 11.6672 19.1333 11.6667C19.1716 11.6666 19.2096 11.6619 19.2467 11.6527C19.3668 11.6227 19.47 11.5463 19.5337 11.4402C19.5974 11.3341 19.6164 11.2071 19.5865 11.0871L19.1585 9.37627C19.3395 9.05405 19.6093 8.79069 19.9358 8.61759C20.2623 8.44449 20.6318 8.36895 21 8.4C21.3685 8.36735 21.7386 8.44223 22.0654 8.61558C22.3923 8.78894 22.6618 9.05333 22.8415 9.37673ZM14.0107 21.4667H13.0667V16.2461C14.8757 15.5097 16.3261 14.0967 17.1094 12.3074L18.0558 13.8875C15.8928 15.6567 14.1162 18.9719 14.0107 21.4667ZM19.6 3.73333V7.75367C19.0852 7.98713 18.6569 8.37647 18.3755 8.86667H18.0133C17.9195 8.86776 17.8258 8.87634 17.7333 8.89233V2.8H18.6667C18.9142 2.8 19.1516 2.89833 19.3266 3.07337C19.5017 3.2484 19.6 3.4858 19.6 3.73333ZM2.8 1.4C2.8 1.27623 2.84917 1.15753 2.93668 1.07002C3.0242 0.9825 3.1429 0.933333 3.26667 0.933333H17.2667C17.3904 0.933333 17.5091 0.9825 17.5967 1.07002C17.6842 1.15753 17.7333 1.27623 17.7333 1.4C17.7333 1.52377 17.6842 1.64247 17.5967 1.72998C17.5091 1.8175 17.3904 1.86667 17.2667 1.86667H3.26667C3.1429 1.86667 3.0242 1.8175 2.93668 1.72998C2.84917 1.64247 2.8 1.52377 2.8 1.4ZM2.8 10.2667C2.30493 10.2667 1.83014 10.07 1.48007 9.71993C1.13 9.36987 0.933333 8.89507 0.933333 8.4V3.73333C0.933333 3.4858 1.03167 3.2484 1.2067 3.07337C1.38173 2.89833 1.61913 2.8 1.86667 2.8H2.8V9.33333C2.80197 9.6455 2.82363 9.95723 2.86487 10.2667H2.8ZM3.73333 9.33333V2.8H16.8V9.33333C16.8 9.35247 16.8 9.3702 16.8 9.38933C16.7054 9.48893 16.6232 9.59955 16.555 9.7188C16.4202 9.95365 16.345 10.2179 16.3357 10.4885C16.3264 10.7591 16.3834 11.0279 16.5018 11.2714C16.0392 12.7644 15.0564 14.042 13.7319 14.8721C12.4075 15.7022 10.8292 16.0297 9.28385 15.7951C7.73848 15.5605 6.3285 14.7795 5.31001 13.5938C4.29152 12.4081 3.73209 10.8964 3.73333 9.33333ZM8.4 16.5541C9.62285 16.8801 10.9095 16.882 12.1333 16.5597V21.4667H8.4V16.5541ZM4.66667 22.8667C4.66667 22.7429 4.71583 22.6242 4.80335 22.5367C4.89087 22.4492 5.00957 22.4 5.13333 22.4H14.0467C14.1286 23.05 14.3207 23.6812 14.6146 24.2667H4.66667V22.8667ZM17.2667 27.0667H3.26667V25.6667C3.26667 25.5429 3.31583 25.4242 3.40335 25.3367C3.49087 25.2492 3.60957 25.2 3.73333 25.2H15.1835C15.7453 25.9435 16.4545 26.5631 17.2667 27.02V27.0667ZM21 27.0667C17.6549 27.0667 14.9333 24.6591 14.9333 21.7C14.9333 19.3993 16.7365 16.0617 18.8216 14.4667H23.1779C25.2635 16.0617 27.0667 19.3998 27.0667 21.7C27.0667 24.6591 24.3451 27.0667 21 27.0667Z" fill="#88BD36"/>
<path d="M22.4 18.6667C22.4 18.7905 22.4491 18.9092 22.5367 18.9967C22.6242 19.0842 22.7429 19.1334 22.8666 19.1334C22.9904 19.1334 23.1091 19.0842 23.1966 18.9967C23.2841 18.9092 23.3333 18.7905 23.3333 18.6667C23.3326 18.129 23.1466 17.608 22.8066 17.1914C22.4666 16.7749 21.9933 16.4883 21.4666 16.38V16.3334C21.4666 16.2096 21.4175 16.0909 21.33 16.0034C21.2424 15.9159 21.1237 15.8667 21 15.8667C20.8762 15.8667 20.7575 15.9159 20.67 16.0034C20.5825 16.0909 20.5333 16.2096 20.5333 16.3334V16.38C20.0058 16.4871 19.5316 16.7733 19.191 17.19C18.8504 17.6068 18.6643 18.1285 18.6643 18.6667C18.6643 19.2049 18.8504 19.7266 19.191 20.1434C19.5316 20.5601 20.0058 20.8463 20.5333 20.9534V23.7146C20.2612 23.6184 20.0255 23.4405 19.8584 23.2052C19.6913 22.9698 19.6011 22.6886 19.6 22.4C19.6 22.2763 19.5508 22.1576 19.4633 22.07C19.3758 21.9825 19.2571 21.9334 19.1333 21.9334C19.0095 21.9334 18.8908 21.9825 18.8033 22.07C18.7158 22.1576 18.6666 22.2763 18.6666 22.4C18.6673 22.9377 18.8534 23.4588 19.1934 23.8753C19.5334 24.2918 20.0066 24.5784 20.5333 24.6867V24.7334C20.5333 24.8571 20.5825 24.9758 20.67 25.0633C20.7575 25.1509 20.8762 25.2 21 25.2C21.1237 25.2 21.2424 25.1509 21.33 25.0633C21.4175 24.9758 21.4666 24.8571 21.4666 24.7334V24.6867C21.9941 24.5796 22.4683 24.2934 22.809 23.8767C23.1496 23.4599 23.3357 22.9383 23.3357 22.4C23.3357 21.8618 23.1496 21.3401 22.809 20.9234C22.4683 20.5066 21.9941 20.2205 21.4666 20.1134V17.3526C21.7387 17.4487 21.9743 17.6266 22.1414 17.8618C22.3085 18.0971 22.3988 18.3782 22.4 18.6667ZM19.6 18.6667C19.6012 18.3782 19.6915 18.0971 19.8586 17.8618C20.0256 17.6266 20.2613 17.4487 20.5333 17.3526V19.9808C20.2613 19.8847 20.0256 19.7068 19.8586 19.4716C19.6915 19.2363 19.6012 18.9552 19.6 18.6667ZM22.4 22.4C22.3988 22.6886 22.3085 22.9697 22.1414 23.2049C21.9743 23.4401 21.7387 23.618 21.4666 23.7142V21.0859C21.7387 21.1821 21.9743 21.3599 22.1414 21.5952C22.3085 21.8304 22.3988 22.1115 22.4 22.4Z" fill="#88BD36"/>
</g>
<defs>
<clipPath id="clip0_486_11220">
<rect width="28" height="28" fill="white"/>
</clipPath>
</defs>
</svg>
