<svg width="28" height="28" viewBox="0 0 28 28" fill="none" xmlns="http://www.w3.org/2000/svg">
<g clip-path="url(#clip0_257_14533)">
<mask id="mask0_257_14533" style="mask-type:luminance" maskUnits="userSpaceOnUse" x="0" y="0" width="28" height="28">
<path d="M0 3.8147e-06H28V28H0V3.8147e-06Z" fill="currentColor"/>
</mask>
<g mask="url(#mask0_257_14533)">
<path d="M27.1857 27.1692H0.814331V24.8116C0.814331 24.674 0.926167 24.5622 1.06371 24.5622H20.3479C20.5744 24.5622 20.758 24.3785 20.758 24.152C20.758 23.9255 20.5744 23.7419 20.3479 23.7419H17.9122V13.4938H24.096V23.7419H22.0958C21.8692 23.7419 21.6857 23.9255 21.6857 24.152C21.6857 24.3785 21.8692 24.5622 22.0958 24.5622H26.9363C27.0738 24.5622 27.1857 24.674 27.1857 24.8116V27.1692ZM3.90401 16.6438H10.0878V23.7418H3.90401V16.6438ZM26.9363 23.7419H24.9163V13.436C24.9163 13.0155 24.5743 12.6735 24.1539 12.6735H17.9122V9.70206C17.9122 9.28162 17.5702 8.9396 17.1498 8.9396H10.8503C10.4298 8.9396 10.0879 9.28162 10.0879 9.70206V12.6087C10.0879 12.8352 10.2714 13.0189 10.498 13.0189C10.7245 13.0189 10.9082 12.8352 10.9082 12.6087V9.75992H17.0919V23.7419H10.9082V14.3566C10.9082 14.1301 10.7245 13.9465 10.498 13.9465C10.2714 13.9465 10.0879 14.1301 10.0879 14.3566V15.8234H3.84615C3.42571 15.8234 3.0837 16.1655 3.0837 16.5859V23.7419H1.06371C0.473901 23.7419 -0.00598145 24.2217 -0.00598145 24.8116V27.5793C-0.00598145 27.8059 0.177659 27.9895 0.404175 27.9895H27.5958C27.8224 27.9895 28.006 27.8059 28.006 27.5793V24.8116C28.006 24.2217 27.5262 23.7419 26.9363 23.7419Z" fill="currentColor"/>
<path d="M12.6567 2.94817C12.895 2.91355 13.101 2.76387 13.2076 2.54791L14 0.942337L14.7924 2.54791C14.899 2.76387 15.105 2.91355 15.3434 2.94817L17.1152 3.20563L15.833 4.45546C15.6606 4.62357 15.5819 4.86567 15.6226 5.10307L15.9253 6.86778L14.3406 6.03462C14.1273 5.92245 13.8727 5.92251 13.6595 6.03462L12.0747 6.86778L12.3774 5.10307C12.4181 4.86567 12.3394 4.62357 12.167 4.45541L10.8848 3.20563L12.6567 2.94817ZM11.561 5.01032L11.2359 6.90601C11.1884 7.18251 11.2999 7.45677 11.5269 7.62165C11.7538 7.78659 12.0491 7.80791 12.2976 7.67743L14 6.78236L15.7024 7.67743C15.8105 7.7342 15.9274 7.76225 16.0437 7.7622C16.1947 7.7622 16.3448 7.71489 16.4731 7.62165C16.7001 7.45677 16.8116 7.18251 16.7641 6.90606L16.439 5.01032L17.8164 3.66774C18.0172 3.47191 18.0882 3.18447 18.0015 2.91765C17.9148 2.65083 17.6885 2.46002 17.4108 2.41967L15.5074 2.14306L14.6562 0.418322C14.532 0.166705 14.2806 0.0104074 14 0.0104074C13.7194 0.0104074 13.468 0.166704 13.3438 0.418267L12.4926 2.14306L10.5892 2.41967C10.3115 2.46002 10.0852 2.65083 9.99854 2.91765C9.91181 3.18447 9.98274 3.47191 10.1836 3.66774L11.561 5.01032Z" fill="currentColor"/>
</g>
</g>
<defs>
<clipPath id="clip0_257_14533">
<rect width="28" height="28" fill="currentColor"/>
</clipPath>
</defs>
</svg>
