<svg width="28" height="28" viewBox="0 0 28 28" fill="none" xmlns="http://www.w3.org/2000/svg">
<path d="M3.26665 17.6475V21.9334C3.26568 22.3024 3.34049 22.6678 3.48645 23.0067L4.43565 25.2168C4.49222 25.3546 4.58833 25.4726 4.71185 25.5558C4.83538 25.6391 4.98078 25.6839 5.12973 25.6846C5.27868 25.6853 5.42451 25.6418 5.54881 25.5598C5.67311 25.4777 5.77032 25.3606 5.82818 25.2234L6.06665 24.6708V26.6C6.06665 26.9714 6.21415 27.3274 6.4767 27.59C6.73925 27.8525 7.09534 28 7.46665 28H22.8666C23.609 27.9993 24.3208 27.7041 24.8457 27.1791C25.3707 26.6542 25.6659 25.9424 25.6666 25.2V5.60005C25.6663 5.20697 25.5831 4.81839 25.4222 4.45973C25.2614 4.10106 25.0266 3.7804 24.7333 3.51872V2.10005C24.7338 1.79081 24.6658 1.4853 24.5343 1.20542C24.4027 0.925539 24.2109 0.678227 23.9725 0.481213C23.7342 0.284198 23.4552 0.142361 23.1556 0.0658704C22.8559 -0.0106203 22.5431 -0.0198699 22.2394 0.0387847L7.38078 2.80798C7.02592 2.82979 6.69265 2.98578 6.4486 3.24431C6.20455 3.50283 6.06799 3.84453 6.06665 4.20005V6.06672H4.19998C3.95244 6.06672 3.71505 6.16505 3.54001 6.34009C3.36498 6.51512 3.26665 6.75252 3.26665 7.00005V12.2193C2.99462 12.3154 2.75896 12.4933 2.59189 12.7285C2.42482 12.9638 2.33451 13.2449 2.33331 13.5334V16.3334C2.33451 16.6219 2.42482 16.903 2.59189 17.1382C2.75896 17.3735 2.99462 17.5513 3.26665 17.6475ZM6.06665 21.4667H4.19998V17.7334H6.06665V21.4667ZM5.13331 24.4786L4.34371 22.6395C4.31265 22.5617 4.28753 22.4816 4.26858 22.4H5.99805C5.97887 22.4821 5.9536 22.5626 5.92245 22.6408L5.13331 24.4786ZM22.414 0.955318C22.5827 0.922254 22.7567 0.927032 22.9233 0.969309C23.09 1.01159 23.2452 1.09031 23.3778 1.1998C23.5104 1.30929 23.617 1.44683 23.69 1.60251C23.763 1.75818 23.8006 1.92811 23.8 2.10005V2.96338C23.5005 2.8561 23.1848 2.80086 22.8666 2.80005H12.516L22.414 0.955318ZM6.99998 4.20005C6.99998 4.07628 7.04915 3.95759 7.13666 3.87007C7.22418 3.78255 7.34288 3.73338 7.46665 3.73338H22.8666C23.3617 3.73338 23.8365 3.93005 24.1866 4.28012C24.5366 4.63019 24.7333 5.10498 24.7333 5.60005V25.2C24.7333 25.6951 24.5366 26.1699 24.1866 26.52C23.8365 26.87 23.3617 27.0667 22.8666 27.0667H7.46665C7.34288 27.0667 7.22418 27.0175 7.13666 26.93C7.04915 26.8425 6.99998 26.7238 6.99998 26.6V4.20005ZM6.06665 7.00005V12.1334H4.19998V7.00005H6.06665ZM3.26665 13.5334C3.26665 13.4096 3.31581 13.2909 3.40333 13.2034C3.49085 13.1159 3.60955 13.0667 3.73331 13.0667H6.06665V16.8H3.73331C3.60955 16.8 3.49085 16.7509 3.40333 16.6634C3.31581 16.5758 3.26665 16.4572 3.26665 16.3334V13.5334Z" fill="currentColor"/>
<path d="M15.8667 17.2667C16.8819 17.2667 17.8744 16.9656 18.7186 16.4015C19.5628 15.8375 20.2207 15.0358 20.6093 14.0978C20.9978 13.1598 21.0994 12.1276 20.9014 11.1319C20.7033 10.1361 20.2144 9.22143 19.4965 8.50352C18.7786 7.78561 17.8639 7.29671 16.8681 7.09864C15.8724 6.90057 14.8402 7.00222 13.9022 7.39075C12.9642 7.77928 12.1625 8.43724 11.5985 9.28141C11.0344 10.1256 10.7333 11.1181 10.7333 12.1333C10.7349 13.4943 11.2763 14.799 12.2386 15.7614C13.201 16.7237 14.5057 17.2651 15.8667 17.2667ZM15.8667 7.93334C16.6974 7.93334 17.5094 8.17966 18.2001 8.64116C18.8908 9.10267 19.4291 9.75862 19.747 10.5261C20.0649 11.2935 20.148 12.138 19.986 12.9527C19.8239 13.7674 19.4239 14.5158 18.8365 15.1032C18.2491 15.6906 17.5008 16.0906 16.6861 16.2526C15.8713 16.4147 15.0269 16.3315 14.2594 16.0136C13.492 15.6957 12.836 15.1574 12.3745 14.4667C11.913 13.776 11.6667 12.964 11.6667 12.1333C11.6679 11.0198 12.1108 9.95224 12.8982 9.16485C13.6856 8.37747 14.7531 7.93457 15.8667 7.93334Z" fill="currentColor"/>
<path d="M13.5585 12.1334C13.5585 12.0096 13.5093 11.8909 13.4218 11.8034C13.3343 11.7159 13.2156 11.6667 13.0918 11.6667H13.0666C13.006 11.667 12.946 11.6793 12.8902 11.703C12.8343 11.7267 12.7838 11.7613 12.7415 11.8047C12.6991 11.8481 12.6659 11.8996 12.6437 11.956C12.6215 12.0125 12.6108 12.0728 12.6121 12.1334C12.615 12.2585 12.6669 12.3775 12.7566 12.4648C12.8463 12.552 12.9667 12.6006 13.0918 12.6001C13.2156 12.6001 13.3343 12.5509 13.4218 12.4634C13.5093 12.3759 13.5585 12.2572 13.5585 12.1334Z" fill="currentColor"/>
<path d="M14.8867 12.4203C14.9429 12.4202 14.9987 12.4102 15.0514 12.3909C15.1649 12.3463 15.2563 12.259 15.3062 12.1478C15.3562 12.0366 15.3606 11.9103 15.3186 11.7958C15.2766 11.6814 15.1915 11.588 15.0815 11.5355C14.9715 11.483 14.8453 11.4756 14.7299 11.515L14.7075 11.5229C14.6506 11.544 14.5985 11.5762 14.5542 11.6177C14.5099 11.6592 14.4743 11.7091 14.4494 11.7645C14.4246 11.8199 14.4111 11.8797 14.4097 11.9403C14.4082 12.001 14.4189 12.0614 14.441 12.1179C14.4756 12.2077 14.5369 12.2848 14.6165 12.3389C14.6962 12.3929 14.7904 12.4213 14.8867 12.4203Z" fill="currentColor"/>
<path d="M15.9735 13.561L15.9945 13.5712C16.0552 13.6011 16.1219 13.6171 16.1896 13.6179C16.2773 13.6168 16.363 13.5909 16.4367 13.5433C16.5104 13.4956 16.5692 13.4282 16.6063 13.3486C16.6578 13.2347 16.6625 13.1052 16.6195 12.9878C16.5765 12.8705 16.4891 12.7747 16.3763 12.721C16.3206 12.6899 16.2592 12.6706 16.1958 12.6642C16.1324 12.6578 16.0684 12.6645 16.0077 12.6837C15.947 12.703 15.8908 12.7345 15.8428 12.7763C15.7947 12.8181 15.7557 12.8693 15.7281 12.9268C15.7006 12.9842 15.6851 13.0467 15.6826 13.1104C15.6801 13.174 15.6907 13.2375 15.7137 13.2969C15.7367 13.3564 15.7716 13.4104 15.8163 13.4558C15.861 13.5013 15.9145 13.537 15.9735 13.561Z" fill="currentColor"/>
<path d="M13.5678 14.4368C13.6543 14.5211 13.7705 14.5678 13.8912 14.567C13.9554 14.567 14.0189 14.5544 14.0782 14.5298C14.1375 14.5052 14.1913 14.4692 14.2366 14.4237C14.3237 14.3356 14.3723 14.2165 14.3716 14.0926C14.3709 13.9686 14.321 13.8501 14.2328 13.7629C14.1447 13.6758 14.0256 13.6272 13.9017 13.6279C13.7778 13.6286 13.6592 13.6785 13.572 13.7667L13.5548 13.7844C13.5122 13.8278 13.4788 13.8792 13.4564 13.9357C13.434 13.9922 13.4231 14.0526 13.4243 14.1133C13.4255 14.1741 13.4388 14.234 13.4635 14.2895C13.4881 14.3451 13.5236 14.3951 13.5678 14.4368Z" fill="currentColor"/>
<path d="M15.8667 15.3878C15.9918 15.385 16.1109 15.3331 16.1982 15.2434C16.2855 15.1537 16.334 15.0333 16.3334 14.9081C16.3334 14.7843 16.2842 14.6656 16.1967 14.5781C16.1092 14.4906 15.9905 14.4414 15.8667 14.4414C15.7429 14.4414 15.6242 14.4906 15.5367 14.5781C15.4492 14.6656 15.4 14.7843 15.4 14.9081V14.9333C15.4002 14.9939 15.4125 15.054 15.4361 15.1098C15.4598 15.1657 15.4944 15.2163 15.5378 15.2586C15.5813 15.3009 15.6328 15.3342 15.6892 15.3564C15.7457 15.3785 15.806 15.3892 15.8667 15.3878Z" fill="currentColor"/>
<path d="M19.1334 18.6667H12.6C12.4763 18.6667 12.3576 18.7159 12.27 18.8034C12.1825 18.8909 12.1334 19.0096 12.1334 19.1334C12.1334 19.2572 12.1825 19.3759 12.27 19.4634C12.3576 19.5509 12.4763 19.6001 12.6 19.6001H19.1334C19.2571 19.6001 19.3758 19.5509 19.4633 19.4634C19.5509 19.3759 19.6 19.2572 19.6 19.1334C19.6 19.0096 19.5509 18.8909 19.4633 18.8034C19.3758 18.7159 19.2571 18.6667 19.1334 18.6667Z" fill="currentColor"/>
<path d="M17.7333 20.5334H14C13.8762 20.5334 13.7575 20.5826 13.67 20.6701C13.5825 20.7576 13.5333 20.8763 13.5333 21.0001C13.5333 21.1239 13.5825 21.2426 13.67 21.3301C13.7575 21.4176 13.8762 21.4668 14 21.4668H17.7333C17.8571 21.4668 17.9758 21.4176 18.0633 21.3301C18.1508 21.2426 18.2 21.1239 18.2 21.0001C18.2 20.8763 18.1508 20.7576 18.0633 20.6701C17.9758 20.5826 17.8571 20.5334 17.7333 20.5334Z" fill="currentColor"/>
</svg>
