<svg width="24" height="24" viewBox="0 0 24 24" fill="none" xmlns="http://www.w3.org/2000/svg">
<path d="M12 16.5C14.4853 16.5 16.5 14.4853 16.5 12C16.5 9.51472 14.4853 7.5 12 7.5C9.51472 7.5 7.5 9.51472 7.5 12C7.5 14.4853 9.51472 16.5 12 16.5Z" stroke="white" stroke-width="1.2" stroke-linecap="round" stroke-linejoin="round"/>
<path d="M11.5192 4.1394L9.75023 2.81303C9.65532 2.74163 9.54479 2.69381 9.42777 2.6735C9.31074 2.6532 9.19057 2.661 9.07715 2.69625C8.52927 2.86782 7.99772 3.08774 7.48878 3.35343C7.38343 3.40869 7.29273 3.48821 7.22416 3.58544C7.1556 3.68266 7.11114 3.7948 7.09445 3.91259L6.78173 6.10174C6.66253 6.2074 6.54583 6.3173 6.43163 6.43144C6.31746 6.5456 6.20754 6.66234 6.10185 6.78163L6.1018 6.78167L3.91304 7.09467C3.79544 7.1113 3.68347 7.15563 3.58636 7.22403C3.48926 7.29242 3.40979 7.38291 3.35452 7.48804C3.08843 7.99676 2.86808 8.52813 2.69607 9.07588C2.66065 9.18945 2.65275 9.30982 2.67301 9.42705C2.69328 9.54428 2.74113 9.65501 2.81263 9.7501L4.13946 11.5192C4.12988 11.6782 4.12507 11.8384 4.12503 11.9999C4.12503 12.1613 4.12984 12.3216 4.13947 12.4807L4.13946 12.4807L2.81309 14.2498C2.74169 14.3447 2.69387 14.4552 2.67356 14.5722C2.65326 14.6893 2.66106 14.8094 2.69631 14.9228C2.86788 15.4707 3.08781 16.0023 3.35349 16.5112C3.40875 16.6166 3.48828 16.7073 3.5855 16.7758C3.68272 16.8444 3.79486 16.8889 3.91265 16.9055L6.1018 17.2183C6.20746 17.3375 6.31736 17.4542 6.43149 17.5684C6.54566 17.6825 6.66239 17.7925 6.78169 17.8981L6.78173 17.8982L7.09473 20.087C7.11136 20.2046 7.15569 20.3165 7.22408 20.4136C7.29248 20.5107 7.38297 20.5902 7.4881 20.6455C7.99682 20.9116 8.52819 21.1319 9.07593 21.3039C9.18951 21.3393 9.30987 21.3472 9.4271 21.327C9.54433 21.3067 9.65506 21.2589 9.75015 21.1874L11.5192 19.8605C11.6782 19.8701 11.8385 19.8749 11.9999 19.875C12.1614 19.875 12.3217 19.8702 12.4807 19.8605L12.4808 19.8605L14.2498 21.1869C14.3447 21.2583 14.4553 21.3061 14.5723 21.3264C14.6893 21.3467 14.8095 21.3389 14.9229 21.3037C15.4708 21.1321 16.0023 20.9122 16.5113 20.6465C16.6166 20.5912 16.7073 20.5117 16.7759 20.4145C16.8445 20.3173 16.8889 20.2051 16.9056 20.0873L17.2183 17.8982C17.3375 17.7925 17.4542 17.6826 17.5684 17.5685C17.6826 17.4543 17.7925 17.3376 17.8982 17.2183L17.8983 17.2183L20.087 16.9053C20.2046 16.8886 20.3166 16.8443 20.4137 16.7759C20.5108 16.7075 20.5903 16.617 20.6455 16.5119C20.9116 16.0032 21.132 15.4718 21.304 14.9241C21.3394 14.8105 21.3473 14.6901 21.327 14.5729C21.3068 14.4557 21.2589 14.3449 21.1874 14.2498L19.8606 12.4808C19.8702 12.3218 19.875 12.1615 19.875 12.0001C19.875 11.8386 19.8702 11.6783 19.8606 11.5192L19.8606 11.5192L21.187 9.75017C21.2584 9.65526 21.3062 9.54473 21.3265 9.42771C21.3468 9.31068 21.339 9.19051 21.3037 9.07709C21.1322 8.52921 20.9123 7.99766 20.6466 7.48872C20.5913 7.38337 20.5118 7.29267 20.4146 7.2241C20.3173 7.15554 20.2052 7.11108 20.0874 7.09439L17.8983 6.78167C17.7926 6.66247 17.6827 6.54577 17.5686 6.43157C17.4544 6.3174 17.3377 6.20748 17.2184 6.10179L17.2183 6.10174L16.9053 3.91298C16.8887 3.79538 16.8444 3.68341 16.776 3.5863C16.7076 3.4892 16.6171 3.40973 16.512 3.35446C16.0032 3.08837 15.4719 2.86802 14.9241 2.69601C14.8106 2.66059 14.6902 2.65269 14.573 2.67295C14.4557 2.69322 14.345 2.74107 14.2499 2.81257L12.4808 4.1394C12.3218 4.12982 12.1616 4.12501 12.0001 4.12497C11.8387 4.12497 11.6784 4.12978 11.5193 4.1394L11.5192 4.1394Z" stroke="white" stroke-width="1.2" stroke-linecap="round" stroke-linejoin="round"/>
</svg>
